<svg width="56" height="67" viewBox="0 0 56 67" fill="none" xmlns="http://www.w3.org/2000/svg">
<path d="M13.5 7.5C13.5 4.73858 15.7386 2.5 18.5 2.5H48.5C51.2614 2.5 53.5 4.73858 53.5 7.5V46.5C53.5 49.2614 51.2614 51.5 48.5 51.5H18.5C15.7386 51.5 13.5 49.2614 13.5 46.5V7.5Z" stroke="#d5ced9" stroke-width="5"/>
<path d="M2.5 20.5C2.5 17.7386 4.73858 15.5 7.5 15.5H37.5C40.2614 15.5 42.5 17.7386 42.5 20.5V59.5C42.5 62.2614 40.2614 64.5 37.5 64.5H7.5C4.73858 64.5 2.5 62.2614 2.5 59.5V20.5Z" stroke="#d5ced9" stroke-width="5"/>
</svg>
