<svg width="80" height="80" viewBox="0 0 80 80" fill="none" xmlns="http://www.w3.org/2000/svg">
<path d="M10.3152 69.4565C8.2977 53.5729 8.79089 42.1411 10.5141 23.525C10.7515 20.9602 12.9081 19 15.4839 19H40.9423L54.9423 31.5C53.2099 46.5095 53.1758 55.4459 54.3462 68.1106C54.631 71.1925 52.1228 73.8278 49.0316 73.6733C36.8409 73.0641 28.0255 73.0815 15.5175 73.7408C12.9285 73.8773 10.6418 72.0285 10.3152 69.4565Z" fill="#23262E" stroke="#D5CED9" stroke-width="8" stroke-linecap="round"/>
<path d="M26.3152 55.4565C24.2977 39.5729 24.7909 28.1411 26.5141 9.52495C26.7515 6.96017 28.9081 5 31.4839 5H56.1794C56.6707 5 57.1449 5.18088 57.5114 5.50813L70.1686 16.8092C70.6537 17.2423 70.8969 17.8896 70.8244 18.5359C69.2089 32.9265 69.203 41.74 70.3462 54.1106C70.631 57.1925 68.1228 59.8278 65.0316 59.6733C52.8409 59.0641 44.0255 59.0815 31.5175 59.7408C28.9285 59.8773 26.6418 58.0285 26.3152 55.4565Z" fill="#23262E" stroke="#D5CED9" stroke-width="8" stroke-linecap="round"/>
</svg>
