<svg width="1800" height="1800" viewBox="0 0 1800 1800" fill="none" xmlns="http://www.w3.org/2000/svg">
<path d="M230.508 809.258C229.206 790.878 230.599 766.785 232.51 748.474C233.103 742.736 235.754 745.642 236.282 741.68C237.313 733.933 236.013 726.715 237.241 719.058C237.66 716.521 241.859 719.68 242.203 717.019C244.058 702.439 242.989 688.647 243.881 673.877C248.284 601.128 249.86 529.618 251.773 455.979C252.4 431.698 256.21 402.182 254.544 377.103C254.346 374.175 250.661 375.921 250.357 375.364C245.707 366.627 253.147 369.532 254.135 363.828C258.038 341.187 258.377 316.011 256.955 294.223C256.339 284.953 249.02 294.247 253.128 284.914C253.406 284.266 257.319 286.617 257.736 284.075C258.675 278.31 257.975 267.373 258.286 262.905C258.903 254.294 258.863 252.869 258.908 244.725C258.965 238.002 259.697 230.511 260.073 223L259.162 168.218L295.321 210.259C298.283 214.206 301.368 218.061 304.664 221.476C306.449 223.308 307.375 218.147 310.5 220.837C313.626 223.531 320.249 232.028 321.843 235.423C323.437 238.82 320.025 239.648 319.88 240.604C318.57 248.568 333.029 252.744 334.214 253.842C355.634 274.032 367.955 296.375 385.502 317.455C398.831 333.451 414.288 349.554 426.789 364.926C441.669 383.251 452.789 400.022 467.737 417.414C469.312 419.253 471.125 414.057 473.055 416.296C493.555 440.09 513.098 464.396 530.642 490.472C532.398 493.09 526.63 492.63 528.194 495.404C537.841 512.328 550.96 540.89 572.107 538.121C579.873 548.56 589.399 561.153 594.036 572.414C597.029 579.672 588.907 576.96 596.273 582.808C597.93 584.13 599.242 579.528 601.497 581.702C610.992 590.857 619.162 602.69 629.024 611.357C631.037 613.114 633.298 610.296 634.266 610.464C642.252 611.992 642.376 625.489 643.357 627.639C650.901 643.942 660.406 652.526 670.658 665.032C673.036 667.936 673.856 661.484 676.275 664.169C688.774 678.133 700.864 693.311 710.967 708.76C713.206 712.204 707.693 711.91 708.603 713.688C712.655 721.497 719.756 718.07 723.755 725.465C724.606 727.018 721.314 728.482 721.224 728.969C719.799 736.606 729.068 734.505 730.028 735.366C742.313 746.143 742.111 759.731 753.045 770.92C754.359 772.253 755.043 766.213 758.533 770.131C775.179 788.793 791.533 809.038 806.6 829.606L782.47 827.514C790.591 821.434 798.764 815.557 806.913 809.947C811.36 806.877 810.569 811.874 811.089 811.965C819.402 813.233 816.615 804.44 817.744 803.061C826.792 792.35 841.257 789.423 841.861 775.618C888.78 740.378 929.536 698.297 979.686 667.609C980.317 667.211 982.02 671.26 983.267 670.453C998.313 660.759 991.501 658.003 995.294 644.333C996.254 640.895 1009.33 642.398 1010.4 642.42C1014.29 642.522 1016.03 649.219 1017.1 648.974C1025.78 646.782 1011.44 631.92 1019.69 624.897C1019.98 624.704 1021.35 628.517 1022.28 628.216C1025.2 627.289 1026.37 624.325 1029.32 623.53C1036.1 621.734 1044.3 627.908 1047.9 617.206C1048.34 615.837 1039.35 608.136 1047.08 602.291C1050.17 599.968 1063.06 588.759 1067.2 586.237C1071.33 583.719 1071.27 588.716 1071.64 588.619C1084.68 584.077 1082.29 588.813 1091.99 590.256C1101.66 591.679 1088.95 579.48 1089.69 576.286C1090.44 573.093 1100.3 570.112 1102.99 569.698C1105.68 569.286 1105.03 572.984 1107.13 572.265C1120.97 567.439 1106.07 561.748 1107.7 556.711C1111.54 544.812 1126.26 549.361 1134.5 544.035C1136.73 542.593 1133.17 541.727 1134.78 539.999C1141.17 533.184 1148.05 532.661 1153.69 522.991C1154.62 521.411 1156.06 509.928 1163.99 510.722C1165.12 510.846 1165.52 514.754 1169.01 512.745C1174.22 509.75 1182.79 503.396 1186.93 498.459C1189.99 494.812 1182.43 494.225 1188.01 491.666C1190.48 490.532 1188.8 496.06 1193.29 493.73C1197.76 491.417 1207.22 483.198 1210.79 480.027C1214.35 476.861 1209.74 475.463 1209.86 475.006C1210.62 472.307 1216.32 464.904 1216.94 464.385C1247.66 437.639 1280.71 418.524 1309.47 391.129C1311.73 388.983 1307.39 387.072 1307.71 386.711C1314.67 378.45 1315.62 392.539 1323.75 390.616C1317.32 384.71 1321.68 383.061 1326.79 377.479C1329.24 374.783 1325.57 373.502 1325.6 373.026C1326.39 365.671 1333.5 368.269 1335.1 368.672C1341.01 370.147 1340.17 363.185 1344.16 364.143C1348.13 365.083 1347.04 372.394 1352.49 367.687C1352.02 364.017 1342.7 361.3 1346.01 356.761C1358.51 339.626 1391.96 319.556 1405.03 309.327C1418.06 299.119 1421.77 295.223 1429.84 289.836C1444.43 280.107 1435.67 279.656 1442.13 270.558C1448.61 261.44 1454.17 276.128 1457.42 277.543C1460.64 278.975 1459.8 275.399 1462.38 275.499C1464.96 275.602 1463.23 279.909 1467.05 277.52C1470.88 275.129 1476.52 262.916 1475.58 259.357C1473.57 251.822 1464.59 249.747 1475.27 244.079C1475.89 243.757 1476.73 248.149 1478.97 246.764C1492.2 238.464 1504.76 228.676 1517.55 219.522L1524.84 213.04L1525.06 223C1524.62 228.28 1524.11 233.533 1523.45 238.733C1523.08 241.571 1518.75 239.033 1518.48 240.685C1515.72 257.888 1523.01 251.739 1531.12 261.167C1520.33 259.05 1513.73 264.264 1513.67 277.32C1513.63 285.169 1518.34 283.818 1521.66 288.894C1522.66 290.417 1519.42 295.971 1521.64 296.977C1528.88 300.295 1536.99 295.064 1533.76 308.526C1533.61 309.116 1529.64 307.236 1529.4 309.276C1527.83 322.467 1535.41 324.046 1536.32 338.304C1537.04 349.481 1532.43 369.358 1531.67 382.084C1519.55 381.817 1522.32 393.837 1530.68 398.713C1530.34 406.972 1530.82 415.892 1529.66 423.875C1529.27 426.622 1525.75 424.817 1525.37 425.163C1519.42 430.476 1527.56 434.066 1527.88 435.849C1530.98 455.17 1524.81 470.911 1530.84 489.35C1531.05 490.005 1539.48 491.065 1533.33 495.994C1532.9 496.313 1529.07 490.223 1528.77 498.897C1528.48 507.573 1523.96 523.927 1527.87 535.97C1528.8 538.885 1535.64 546.257 1530.3 552.174C1529.57 552.962 1527.16 552.099 1525.81 553.237C1521.53 556.916 1530.05 558.924 1522.81 563.247C1515.58 567.57 1510.16 576.563 1515.15 588.709C1515.3 589.096 1522.05 591.971 1521.94 595.791C1521.76 601.889 1520.36 610.544 1520.4 616.911C1520.42 619.96 1524.61 618.009 1524.69 618.538C1527.04 639.035 1523.3 653.622 1521.68 675.58C1521.38 679.606 1527.09 691.173 1522.57 698.966C1517.63 707.522 1497.05 698.729 1501.96 718.397C1503.92 726.33 1530.02 736.373 1516.49 750.628C1519.85 778.276 1512.92 803.844 1517.71 831.569C1517.92 832.815 1525.21 836.758 1525.11 839.689C1524.95 844.041 1521.54 846.429 1521.32 849.536C1520.29 862.556 1523.2 874.469 1522.75 887.022C1522.59 891.788 1519.07 890.122 1518.87 895.806C1518.68 901.487 1523.31 905.274 1521.07 912.972C1519.37 918.786 1509.89 924.599 1508.79 932.316C1518.13 932.61 1517.94 937.91 1520.41 947.331C1520.89 949.141 1524.14 947.2 1524.53 948.056C1526.21 951.542 1523.51 954.769 1525.34 958.079C1525.78 958.884 1528.97 958.922 1529.51 959.58C1534.21 965.178 1527.03 974.399 1525.78 975.983C1521.03 982.054 1525.18 984.89 1523.31 989.547C1521.44 994.195 1519.11 987.244 1517.97 992.675C1515.63 1003.93 1516.14 1018.39 1515.99 1029.82C1515.96 1034.38 1520.22 1031.27 1520.31 1031.92C1521.39 1041.36 1516.86 1050.89 1525.34 1056.12C1503.4 1062.66 1527.47 1061.81 1523.08 1075.29C1522.72 1076.35 1512.35 1077.7 1510.82 1073.63C1509.3 1069.55 1512.55 1063.37 1510.17 1057.71C1509.61 1056.37 1499.89 1048.7 1499.3 1047.65C1494.7 1039.45 1510.2 1038.29 1511.06 1037.86C1520.25 1032.94 1509.77 1023.56 1509.05 1021.09C1505.73 1009.79 1507.91 1000.2 1505.54 990.748C1504.01 984.568 1493.86 983.964 1494.17 979.111C1495.2 962.981 1509.37 957.351 1497.08 942.151C1494.46 938.891 1483.36 942.13 1492.09 930.452C1492.64 929.718 1500.62 921.047 1495.57 916.038C1494.93 915.409 1491.7 915.429 1491.43 914.599C1489.67 909.038 1492.25 905.33 1491.01 899.272C1489.78 893.215 1487.94 885.931 1489.03 879.015C1489.69 874.847 1495.72 869.499 1497.2 867.504C1501.45 861.87 1494.48 855.829 1499.62 852.339C1504.8 848.819 1512.66 855.7 1516 846.471C1507.59 846.129 1498.97 845.344 1490.51 844.794C1490.81 824.568 1493.53 804.667 1493.15 784.373C1493.1 781.857 1488.58 784.43 1488.41 781.733C1487.69 770.354 1490.91 760.414 1489.63 748.614C1488.62 739.479 1483.83 729.462 1482.63 719.911C1492.25 714.076 1488.98 699.903 1489.86 689.607C1490.16 686 1492.73 686.241 1493.57 683.676C1496.67 673.999 1488.17 678.534 1486.83 675.881C1481.12 664.499 1500.36 663.525 1499.89 650.106C1499.87 649.395 1489.61 640.705 1488.97 639.508C1484.81 631.903 1492.54 638.249 1493.3 633.49C1494.69 624.8 1497.14 618.761 1494.13 608.566C1493.24 605.593 1486.85 598.461 1491.79 592.688C1492.44 591.928 1495.83 592.348 1496.03 591.737C1499.34 580.672 1488.69 580.38 1485.08 574.057C1481.47 567.733 1488.83 557.965 1490.95 555.977C1496.43 550.777 1493.29 559.962 1493.83 560.244C1500.23 563.552 1499.13 556.428 1499.67 550.985C1510.11 550.197 1509.48 542.585 1500.19 545.342C1499.17 545.656 1500.14 549.892 1499.67 550.985C1489.42 546.207 1488.11 537.841 1497.68 528.601C1502.17 524.276 1507.4 528.365 1505.49 515.225C1504.63 509.262 1497.43 511.567 1495.47 506.304C1491 494.282 1497.71 478.66 1496.65 466.266C1496.27 461.767 1492.33 466.149 1491.93 463.075C1490.87 454.916 1493.82 447.721 1492.31 439.527C1492.16 438.785 1488.04 440.599 1487.99 438.051C1487.51 418.734 1490.15 401.914 1490.22 381.746C1490.26 372.002 1487.99 354.58 1488.44 344.485C1489.21 326.99 1495.2 305.467 1493.75 290.521C1492.81 280.773 1488.69 282.911 1485.89 278.734C1480.44 270.674 1490.19 256.407 1491.7 254.486C1491.75 254.427 1492.72 262.815 1494.84 258.34C1499.25 255.737 1491.72 254.58 1491.7 254.486C1492.68 253.224 1493.61 236.467 1492.83 233.14C1492.39 231.332 1488.49 232.344 1488.34 231.401C1487.9 228.601 1487.5 225.801 1487.15 223L1542.09 248.421C1528.76 263.032 1514.13 276.194 1497.94 287.85C1497.58 288.049 1495.22 284.33 1494.41 284.839C1483.13 291.876 1480.17 301.402 1473.95 310.844C1467.74 320.284 1460.49 325.045 1450.74 323.488C1445.11 329.506 1434.02 334.583 1427.56 337.425C1421.11 340.267 1425.9 347.357 1425.55 347.87C1414.9 363.977 1403.58 367.209 1388.42 379.088C1381.21 384.725 1368.17 397.412 1361.23 404.532C1355.75 410.171 1350.86 411.705 1346.19 417.346C1345.55 418.107 1348.76 420.354 1348.62 420.658C1345.42 429.321 1342.38 419.763 1340.04 419.579C1331.56 418.899 1326.65 418.869 1320.62 427.698C1319.23 429.731 1322.58 444.371 1319.78 447.771C1316.12 452.172 1314.65 447.155 1310.9 451.857C1310.58 452.256 1312.57 454.434 1309.71 456.692C1296.46 467.205 1281.3 477.83 1268.1 489.427C1266.29 491.003 1271.66 492.573 1269.1 494.908C1257.06 505.862 1243.36 517.274 1229.86 525.867C1226.53 527.97 1226.27 523.893 1225 523.701C1217.23 522.585 1217.14 533.869 1216.32 534.781C1196.86 556.695 1174.93 565.18 1154.77 587.132C1153.68 588.339 1150.17 603.342 1140.87 600.935C1140.24 600.782 1130.87 598.199 1130.74 605.517C1130.73 605.973 1136.01 606.92 1131.2 610.449C1126.4 613.979 1120.89 622.282 1111.71 624.111C1108.81 624.696 1098.96 622.547 1097.21 632.416C1097.12 633.082 1097.39 651.81 1087.69 646.967C1086.1 646.163 1079.82 637.656 1076.3 647.745C1075.64 649.683 1079.6 649.408 1077.01 653.53C1073.06 659.857 1064.05 663.801 1060.44 673.038C1059.81 674.659 1059.51 684.315 1052.02 683.541C1050.85 683.42 1049.75 679.734 1047.4 681.212C1036.22 688.23 1027.32 698.882 1015.63 705.613C1011.49 708.003 1009.64 702.108 1004.92 704.116C1000.2 706.126 991.723 711.396 989.501 716.698C987.278 722.001 997.421 725.29 992.037 730.816C968.629 754.835 939.973 772.192 914.057 793.183C910.212 796.296 915.439 796.116 909.925 800.881C889.603 818.458 856.219 850.808 833.984 860.643C816.169 868.524 831.363 850.1 819.027 857.627C816.574 859.129 815.329 862.203 814.639 865.388L788.085 886.584L768.393 861.378C763.87 860.349 759.109 860.441 758.334 859.814C745.354 849.482 741.729 837.814 731.279 827.489C729.12 825.358 727.726 830.369 725.924 828.525C719.743 822.25 715.312 813.938 709.681 807.712C707.147 804.926 705.08 807.547 703.06 804.724C698.198 797.993 694.57 791.482 691.759 783.316C691.503 782.572 697.8 783.791 693.997 778.982C687.834 771.206 682.283 759.808 672.588 753.027C669.702 751.023 663.879 755.693 663.188 746.8C663.039 744.938 671.175 740.706 659.8 739.138C657.899 738.864 640.761 734.59 641.468 724.911C641.652 722.361 644.281 714.053 640.791 711.659C640.297 711.352 638.629 715.616 636.171 713.271C627.561 704.964 619.921 695.108 611.144 686.517C608.794 684.228 608.711 690.617 605.311 687.12C595.955 677.51 586.093 663.998 578.731 653.114C576.023 649.097 580.796 649.461 580.859 648.953C581.929 640.726 573.484 643.411 571.919 642.278C562.27 635.158 559.566 625.875 551.919 618.276C549.817 616.172 548.15 620.289 547.504 620.059C540.972 617.538 549.29 616.546 547.411 613.074C542.166 603.334 534.195 594.242 526.8 586.131C524.079 583.155 523.483 589.538 521.081 586.834C506.801 570.885 492.915 553.507 481.49 535.854C479.345 532.524 483.614 532.191 483.703 531.051C484.387 523.138 473.238 521.646 471.462 520.645C463.378 516.106 463.604 511.544 458.271 506.033C432.178 479.148 404.261 442.375 382.688 414.455C354.561 378.085 334.32 348.544 305.64 315.406C303.82 313.297 302.041 318.429 300.426 316.649C281.414 295.398 264.57 272.871 245.744 251.487L324.553 223C324.624 225.496 324.711 227.996 324.82 230.499C324.922 233.047 329.33 229.374 329.641 233.464C330.312 241.854 330.072 252.482 328.665 260.966C327.987 265.103 324.204 259.553 323.599 263.718C322.181 273.416 321.867 283.811 322.574 293.772C322.884 298.011 327.392 291.616 327.444 297.125C327.891 334.658 328.668 371.519 322.83 409.447C322.429 412.047 313.267 414.328 315.024 419.857C317.566 420.273 320.558 420.25 323.276 420.432C324.74 475.07 321.563 529.149 321.072 583.94C321.053 586.25 325.907 582.258 325.894 586.73C325.822 612.616 327.167 637.752 322.342 664.23C321.87 666.858 313.329 665.51 314.621 673.252C314.856 674.617 315.996 686.277 317.85 689.292C318.129 689.702 322.116 687.574 322.232 691.332C322.837 713.167 321.927 736.049 319.491 757.846C319.091 761.364 314.845 757.618 314.523 760.123C312.27 777.897 315.497 797.229 311.642 814.213C309.047 825.581 301.709 821.372 294.485 827.413C293.466 828.268 293.305 835.307 289.102 835.671C278.534 836.606 266.962 833.196 255.698 834.595C253.271 834.891 255.885 844.318 250.021 838.737C249.629 838.347 247.683 831.512 245.694 829.828C244.319 828.656 240.045 830.768 238.284 828.377C236.526 825.985 240.108 823.358 238.04 819.393C235.946 815.43 231.084 817.173 230.508 809.258ZM1398.55 350.272C1391.14 351.211 1400.12 363.207 1402.96 356.098C1403.08 355.741 1398.93 350.216 1398.55 350.272ZM1504.81 804.78C1511.4 796.6 1501.7 791.001 1496.61 796.773C1491.52 802.543 1502.81 807.273 1504.81 804.78ZM1509.62 889.612C1514.82 880.051 1493.62 878.546 1497.9 888.787C1498.15 889.382 1509.32 890.171 1509.62 889.612ZM292.428 799.399C292.23 799.485 292.036 804.545 292.233 804.666C296.983 807.361 297.366 797.242 292.428 799.399ZM1514.86 973.794C1517.73 970.809 1514.42 962.215 1510.85 965.924C1507.99 968.909 1511.3 977.511 1514.86 973.794ZM1139.42 549.428C1139.2 549.322 1136.31 551.518 1137.18 552.431C1139.99 555.364 1143.1 551.223 1139.42 549.428ZM1515.11 1116.87C1515.91 1095.73 1533.42 1082.91 1531.45 1105.93C1531.09 1110.1 1525.86 1096.95 1524.28 1102.26C1521.41 1111.96 1532.4 1118.41 1526.51 1128.32C1525.43 1130.11 1515.02 1118.08 1515.08 1116.83C1515.09 1116.84 1515.1 1116.86 1515.11 1116.87ZM1384.18 338.914C1383.95 338.844 1380 341.952 1380.04 342.18C1381.04 347.559 1389 341.3 1384.18 338.914ZM972.091 679.425C971.607 679.283 962.469 686.528 962.431 687.07C962.823 696.923 981.313 682.294 972.091 679.425ZM1531.35 382.284C1536.13 387.764 1536.69 394.319 1530.69 398.688C1531.01 393.242 1531.06 387.76 1531.35 382.284ZM1569.99 1430.41C1571.29 1431.25 1569.9 1432.34 1567.99 1433.17C1567.4 1433.43 1564.75 1433.29 1564.22 1433.47C1563.19 1433.82 1564.49 1434.15 1563.26 1434.5C1562.84 1434.61 1558.64 1434.47 1558.3 1434.59C1556.44 1435.25 1557.51 1435.88 1556.62 1436.54C1552.22 1439.84 1550.64 1443.08 1548.73 1446.41C1548.1 1447.51 1544.29 1448.84 1545.96 1449.98C1546.15 1450.11 1549.84 1450.03 1550.14 1450.06C1554.79 1450.45 1547.35 1450.32 1546.36 1450.58C1542.46 1451.61 1542.12 1452.75 1543.55 1453.73C1544.16 1454.15 1551.48 1453.73 1547.37 1454.15C1547.09 1454.18 1543.18 1454.08 1542.76 1454.19C1541.83 1454.45 1542.52 1454.95 1542.21 1455.15C1541.6 1455.54 1541.64 1455.6 1541.59 1455.97C1541.5 1456.48 1539.55 1457.08 1540.44 1457.62C1540.64 1457.73 1544.65 1457.58 1545.33 1457.76C1546.01 1457.95 1545.67 1458.44 1544.73 1458.6C1543.78 1458.77 1540.63 1458.7 1539.91 1458.72C1533.81 1458.96 1542.26 1459.53 1542.46 1459.6C1546.02 1460.92 1541.21 1462.06 1541.23 1463.3C1541.25 1464.24 1542.84 1465.25 1542.62 1466.15C1542.34 1467.22 1540.17 1468.12 1540.54 1469.16C1540.58 1469.27 1545.29 1469.14 1545.35 1469.27C1545.89 1470.7 1545.38 1472.11 1542.2 1473.52C1541.87 1473.67 1537.73 1473.48 1537.16 1473.62C1533.76 1474.49 1525.58 1475.87 1543.61 1476.38C1542.91 1476.97 1542.18 1477.69 1538.55 1478.21C1536.21 1478.55 1531.7 1478.22 1533.62 1478.64C1534.05 1478.73 1538 1478.61 1538.34 1478.75C1539.79 1479.34 1538.51 1479.99 1540.55 1480.58C1540.97 1480.7 1544.51 1480.67 1545.15 1480.7C1550.31 1480.99 1541.78 1481.46 1541.16 1481.56C1536.53 1482.35 1538.35 1482.92 1538.24 1483.65C1538.21 1483.82 1542.97 1483.62 1543.11 1483.79C1543.79 1484.63 1543.38 1485.51 1541.27 1486.34C1540.79 1486.53 1536.74 1486.36 1536.31 1486.45C1534.43 1486.84 1542.08 1486.92 1540.43 1487.29C1540.09 1487.37 1536.62 1487.33 1536.24 1487.34C1530.26 1487.57 1538.73 1487.76 1538.92 1487.82C1541.47 1488.55 1532.63 1489.02 1533.88 1489.72C1534.04 1489.81 1538.43 1489.62 1538.61 1489.86C1539.82 1491.44 1538.61 1493.11 1535.1 1494.68C1534.56 1494.92 1531.27 1494.75 1530.86 1494.76C1524.51 1495.01 1533.02 1495.17 1533.34 1495.25C1535.65 1495.88 1528.51 1496.46 1538.64 1496.89C1535.13 1499.54 1540.82 1502.18 1531.74 1504.81C1531.64 1504.84 1527.45 1504.78 1527.25 1504.85C1524.9 1505.65 1531.41 1505.5 1539.38 1506.03C1541.38 1506.16 1531.76 1506.57 1531.06 1506.61C1528.46 1506.74 1522.23 1506.6 1521.73 1506.65C1517.78 1507.01 1538.39 1506.95 1538.39 1507.44C1538.36 1507.46 1534.57 1507.39 1534.19 1507.43C1533 1507.56 1534.51 1507.69 1533.21 1507.81C1530.18 1508.1 1520.17 1508.2 1526 1508.64C1526.75 1508.7 1538.45 1508.61 1537.89 1509.05C1537.66 1509.23 1537.86 1510 1537.11 1510.22C1536.35 1510.43 1532.58 1510.28 1532.42 1510.3C1527.44 1510.88 1525.37 1510.66 1518 1510.95C1510.65 1511.24 1528.17 1511.16 1530.13 1511.28C1532.08 1511.4 1527.97 1511.83 1526.54 1511.93C1525.11 1512.04 1522.72 1511.91 1521.91 1512C1516.62 1512.62 1530.61 1512.27 1533.39 1512.48C1539.98 1512.96 1526.98 1513.33 1525.7 1513.77C1525.36 1513.89 1528.32 1513.8 1528.6 1513.9C1529.65 1514.32 1525.6 1514.58 1529.32 1515.05C1529.92 1515.13 1537.74 1515.52 1532 1515.77C1531.18 1515.8 1527.94 1515.7 1527.21 1515.88C1526.12 1516.15 1525.42 1516.63 1526.5 1516.92C1527.3 1517.13 1532.64 1516.89 1530.98 1517.16C1530.24 1517.27 1527.12 1517.05 1525.99 1517.28C1524.86 1517.5 1524.99 1518.07 1525.1 1518.28C1525.21 1518.5 1529.26 1518.38 1529.53 1518.4C1531.09 1518.5 1533.05 1518.92 1533.04 1518.95C1533.54 1520.8 1526.71 1522.5 1528.97 1524.29C1529.14 1524.43 1533.41 1524.34 1533.48 1524.36C1535.27 1524.84 1523.92 1524.46 1520.12 1524.8C1528.78 1524.75 1527.21 1524.95 1528.16 1525.29C1528.63 1525.46 1531.98 1525.37 1532.33 1525.38C1537.42 1525.62 1530.84 1525.79 1529.49 1525.84C1524.54 1526 1530.39 1526.17 1527.08 1526.28C1523.8 1526.39 1518.93 1526.14 1518.99 1526.47C1522.09 1526.56 1530.2 1526.31 1531.51 1526.56C1536.48 1527.5 1530.12 1529.24 1529.46 1529.99C1528.8 1530.74 1529.37 1530.98 1528.25 1531.42C1526.22 1532.2 1532.24 1531.92 1534.99 1532.41C1537.74 1532.9 1522.95 1532.66 1519.77 1532.73C1516.59 1532.8 1519.86 1532.87 1518.11 1532.96C1516.36 1533.05 1514.2 1532.86 1513.55 1533.06C1512.89 1533.26 1518.55 1533.82 1521.87 1533.89C1528.92 1534.04 1536.31 1533.79 1533.71 1534.33C1533.56 1534.36 1529.67 1534.26 1529.28 1534.37C1526.28 1535.31 1526.09 1536.28 1523.45 1537.22C1523.08 1537.34 1518.75 1537.23 1518.48 1537.3C1515.72 1538.08 1523.01 1537.8 1531.12 1538.23C1520.33 1538.14 1513.73 1538.37 1513.67 1538.96C1513.63 1539.32 1518.34 1539.26 1521.66 1539.49C1522.66 1539.56 1519.42 1539.81 1521.64 1539.85C1528.88 1540 1536.99 1539.77 1533.76 1540.38C1533.61 1540.4 1529.64 1540.32 1529.4 1540.41C1527.83 1541.01 1535.41 1541.08 1536.32 1541.72C1537.04 1542.23 1532.43 1543.13 1531.67 1543.71C1519.55 1543.69 1522.32 1544.24 1530.68 1544.46C1530.34 1544.83 1530.82 1545.24 1529.66 1545.6C1529.27 1545.72 1525.75 1545.64 1525.37 1545.66C1519.42 1545.9 1527.56 1546.06 1527.88 1546.14C1530.98 1547.02 1524.81 1547.73 1530.84 1548.56C1531.05 1548.59 1539.48 1548.64 1533.33 1548.86C1532.9 1548.88 1529.07 1548.6 1528.77 1548.99C1528.48 1549.39 1523.96 1550.13 1527.87 1550.67C1528.8 1550.81 1535.64 1551.14 1530.3 1551.41C1529.57 1551.44 1527.16 1551.4 1525.81 1551.46C1521.53 1551.62 1530.05 1551.71 1522.81 1551.91C1515.58 1552.1 1510.16 1552.51 1515.15 1553.06C1515.3 1553.08 1522.05 1553.21 1521.94 1553.38C1521.76 1553.66 1520.36 1554.05 1520.4 1554.34C1520.42 1554.48 1524.61 1554.39 1524.69 1554.41C1527.04 1555.34 1523.3 1556 1521.68 1556.99C1521.38 1557.18 1527.09 1557.7 1522.57 1558.05C1517.63 1558.44 1497.05 1558.04 1501.96 1558.93C1503.92 1559.29 1530.02 1559.75 1516.49 1560.39C1519.85 1561.64 1512.92 1562.8 1517.71 1564.06C1517.92 1564.11 1525.21 1564.29 1525.11 1564.42C1524.95 1564.62 1521.54 1564.73 1521.32 1564.87C1520.29 1565.46 1523.2 1566 1522.75 1566.57C1522.59 1566.78 1519.07 1566.71 1518.87 1566.96C1518.68 1567.22 1523.31 1567.39 1521.07 1567.74C1519.37 1568.01 1509.89 1568.27 1508.79 1568.62C1518.13 1568.63 1517.94 1568.87 1520.41 1569.3C1520.89 1569.38 1524.14 1569.29 1524.53 1569.33C1526.21 1569.49 1523.51 1569.63 1525.34 1569.78C1525.78 1569.82 1528.97 1569.82 1529.51 1569.85C1534.21 1570.11 1527.03 1570.52 1525.78 1570.59C1521.03 1570.87 1525.18 1571 1523.31 1571.21C1521.44 1571.42 1519.11 1571.1 1517.97 1571.35C1515.63 1571.86 1516.14 1572.51 1515.99 1573.03C1515.96 1573.24 1520.22 1573.1 1520.31 1573.13C1521.39 1573.55 1516.86 1573.99 1525.34 1574.22C1503.4 1574.52 1527.47 1574.48 1523.08 1575.09C1522.72 1575.14 1512.35 1575.2 1510.82 1575.02C1509.3 1574.83 1512.55 1574.55 1510.17 1574.3C1509.61 1574.23 1499.89 1573.89 1499.3 1573.84C1494.7 1573.47 1510.2 1573.42 1511.06 1573.4C1520.25 1573.17 1509.77 1572.75 1509.05 1572.64C1505.73 1572.13 1507.91 1571.69 1505.54 1571.26C1504.01 1570.98 1493.86 1570.96 1494.17 1570.74C1495.2 1570.01 1509.37 1569.75 1497.08 1569.06C1494.46 1568.92 1483.36 1569.06 1492.09 1568.53C1492.64 1568.5 1500.62 1568.11 1495.57 1567.88C1494.93 1567.85 1491.7 1567.85 1491.43 1567.82C1489.67 1567.56 1492.25 1567.4 1491.01 1567.12C1489.78 1566.85 1487.94 1566.52 1489.03 1566.2C1489.69 1566.02 1495.72 1565.77 1497.2 1565.68C1501.45 1565.43 1494.48 1565.15 1499.62 1565C1504.8 1564.84 1512.66 1565.15 1516 1564.73C1507.59 1564.72 1498.97 1564.68 1490.51 1564.66C1490.81 1563.74 1493.53 1562.84 1493.15 1561.92C1493.1 1561.81 1488.58 1561.92 1488.41 1561.8C1487.69 1561.28 1490.91 1560.83 1489.63 1560.3C1488.62 1559.89 1483.83 1559.43 1482.63 1559C1492.25 1558.74 1488.98 1558.1 1489.86 1557.63C1490.16 1557.47 1492.73 1557.48 1493.57 1557.36C1496.67 1556.92 1488.17 1557.13 1486.83 1557.01C1481.12 1556.49 1500.36 1556.45 1499.89 1555.84C1499.87 1555.81 1489.61 1555.42 1488.97 1555.36C1484.81 1555.02 1492.54 1555.3 1493.3 1555.09C1494.69 1554.7 1497.14 1554.42 1494.13 1553.96C1493.24 1553.83 1486.85 1553.5 1491.79 1553.24C1492.44 1553.21 1495.83 1553.23 1496.03 1553.2C1499.34 1552.7 1488.69 1552.68 1485.08 1552.4C1481.47 1552.11 1488.83 1551.67 1490.95 1551.58C1496.43 1551.34 1493.29 1551.76 1493.83 1551.77C1500.23 1551.92 1499.13 1551.6 1499.67 1551.35C1510.11 1551.32 1509.48 1550.97 1500.19 1551.1C1499.17 1551.11 1500.14 1551.3 1499.67 1551.35C1489.42 1551.14 1488.11 1550.76 1497.68 1550.34C1502.17 1550.14 1507.4 1550.33 1505.49 1549.73C1504.63 1549.46 1497.43 1549.57 1495.47 1549.33C1491 1548.79 1497.71 1548.08 1496.65 1547.52C1496.27 1547.31 1492.33 1547.51 1491.93 1547.37C1490.87 1547 1493.82 1546.68 1492.31 1546.31C1492.16 1546.27 1488.04 1546.36 1487.99 1546.24C1487.51 1545.37 1490.15 1544.6 1490.22 1543.69C1490.26 1543.25 1487.99 1542.46 1488.44 1542C1489.21 1541.21 1495.2 1540.24 1493.75 1539.56C1492.81 1539.12 1488.69 1539.22 1485.89 1539.03C1480.44 1538.66 1490.19 1538.02 1491.7 1537.93C1491.75 1537.93 1492.72 1538.31 1494.84 1538.1C1499.25 1537.99 1491.72 1537.93 1491.7 1537.93C1492.68 1537.87 1493.61 1537.11 1492.83 1536.96C1492.39 1536.88 1488.49 1536.93 1488.34 1536.88C1484.84 1535.87 1483.85 1534.85 1485.68 1533.82C1485.76 1533.81 1490.12 1533.83 1490.26 1533.79C1492.2 1533.2 1486.85 1532.81 1483.68 1532.32C1480.51 1531.83 1481.57 1531.44 1489.07 1531.15C1488.13 1530.78 1491.44 1530.25 1493.45 1529.94C1495.47 1529.64 1486.96 1529.59 1486.79 1529.57C1481.41 1528.73 1486.28 1528.24 1487.04 1527.37C1487.41 1526.96 1486.18 1526.14 1485.25 1525.69C1484.5 1525.33 1486.49 1525.12 1485.22 1524.79C1485.05 1524.75 1481.26 1524.79 1481.12 1524.78C1476.59 1524.41 1485.84 1524.59 1487.5 1524.51C1493.51 1524.24 1496.71 1524.07 1493.88 1523.61C1493.23 1523.5 1479.91 1523.19 1479.13 1522.99C1478.14 1522.73 1482.92 1522.83 1481.76 1522.56C1481.66 1522.54 1478.72 1522.55 1478.85 1522.38C1479.41 1521.61 1481.13 1520.78 1480.83 1519.99C1480.8 1519.88 1476.13 1520.02 1476.01 1519.86C1475.46 1519.12 1475.63 1518.31 1477.82 1517.6C1478.37 1517.42 1481.64 1517.53 1482.61 1517.49C1488.49 1517.26 1479.95 1516.92 1479.79 1516.87C1475.68 1515.56 1483.41 1514.55 1479.73 1513.21C1479.52 1513.14 1470.36 1512.58 1478.21 1512.33C1478.74 1512.31 1486.77 1512.06 1481.28 1511.84C1480.93 1511.83 1476.8 1511.98 1477.22 1511.71C1477.64 1511.44 1474.88 1511.01 1479.42 1510.64C1480.85 1510.52 1488.87 1510.25 1482.48 1509.9C1482.03 1509.87 1467.59 1509.33 1477.55 1509.14C1479.19 1509.11 1489.74 1509.14 1484.34 1508.73C1483.29 1508.65 1480.93 1508.79 1479.46 1508.58C1477.2 1508.26 1480.03 1507.83 1475.33 1507.44C1474.49 1507.37 1467.33 1507.07 1472.77 1506.84C1473.62 1506.8 1477.14 1506.87 1477.54 1506.75C1479.43 1506.16 1477.07 1505.54 1479.51 1504.94C1480.36 1504.72 1486.06 1504.83 1487.58 1504.61C1489.11 1504.39 1490.57 1503.94 1487.97 1503.71C1485.37 1503.48 1476.3 1503.73 1475.57 1503.38C1472.42 1501.87 1477.74 1500.37 1478.52 1498.86C1478.63 1498.64 1475.39 1498.83 1475.33 1498.5C1475.08 1497.28 1472.04 1495.18 1478.94 1494.12C1484.47 1493.28 1488.67 1494.34 1490.92 1493.7C1491.99 1493.39 1481.44 1493.05 1481.11 1492.97C1477.74 1492.24 1482.41 1491.73 1480.98 1491.06C1480.68 1490.93 1476.41 1491.06 1476.2 1490.94C1475.46 1490.55 1477.37 1490.13 1477.02 1489.75C1476.85 1489.58 1473.58 1489.61 1473.84 1489.45C1474.4 1489.08 1475.78 1488.75 1478.84 1488.38C1479.11 1488.35 1483.18 1488.57 1483.33 1488.3C1483.56 1487.85 1486.58 1487.29 1483.46 1486.77C1482.52 1486.62 1475.06 1486.61 1480.22 1486.28C1481.29 1486.21 1490.25 1486.3 1482.51 1485.92C1481.22 1485.85 1470.78 1485.21 1477.51 1484.89C1479.28 1484.81 1486.62 1484.6 1485.46 1484.41C1485.28 1484.39 1481.27 1484.49 1480.88 1484.33C1479.57 1483.8 1480 1483.23 1478.74 1482.68C1478.4 1482.53 1474.25 1482.75 1473.87 1482.53C1472.83 1481.93 1473.88 1481.17 1475.18 1480.58C1475.67 1480.36 1479.1 1480.51 1479.48 1480.49C1485.56 1480.24 1477.35 1480.09 1476.87 1480C1474 1479.48 1477.86 1479.07 1476.84 1478.59C1476.57 1478.45 1472.65 1478.55 1472.31 1478.52C1468.89 1478.25 1475.92 1478.45 1476.7 1478.28C1478.89 1477.79 1478.58 1477.24 1478.08 1476.74C1477.89 1476.56 1473.35 1476.77 1473.23 1476.6C1472.45 1475.63 1472.88 1474.63 1475.39 1473.68C1475.87 1473.5 1479.36 1473.61 1480.16 1473.58C1485.75 1473.32 1478.13 1472.95 1477.4 1472.86C1474.09 1472.47 1477.18 1472.32 1476.6 1471.97C1473.73 1470.28 1475.78 1468.19 1477.04 1466.59C1478.67 1464.51 1481.99 1462.9 1481.13 1460.92C1481.08 1460.79 1476.43 1460.92 1476.33 1460.81C1475.21 1459.41 1477.02 1458.02 1475.68 1456.62C1475.58 1456.5 1471.17 1456.67 1470.86 1456.48C1470.19 1456.1 1470.43 1455.62 1471.84 1455.24C1472.51 1455.05 1476.3 1455.3 1476.9 1455.11C1478.32 1454.67 1478.63 1454.2 1477.93 1453.75C1477.62 1453.56 1473.11 1453.85 1473.06 1453.6C1472.61 1451.9 1471.83 1450.23 1477.67 1448.52C1478.07 1448.4 1487.23 1448.29 1485.48 1448.04C1482.93 1448.03 1479.94 1448.03 1477.22 1448.02C1475.76 1445.54 1478.94 1443.1 1479.43 1440.62C1479.45 1440.51 1474.59 1440.69 1474.61 1440.49C1474.68 1439.32 1473.33 1438.18 1478.16 1436.98C1478.63 1436.86 1487.17 1436.92 1485.88 1436.57C1485.64 1436.51 1484.5 1435.98 1482.65 1435.85C1482.37 1435.83 1478.38 1435.92 1478.27 1435.75C1477.66 1434.76 1478.57 1433.73 1481.01 1432.74C1481.41 1432.58 1485.65 1432.75 1485.98 1432.64C1488.23 1431.83 1485 1430.96 1488.86 1430.19C1491.45 1429.68 1498.79 1429.87 1506.01 1429.59C1507.03 1429.55 1507.2 1429.24 1511.4 1429.22C1521.97 1429.18 1533.54 1429.33 1544.8 1429.27C1547.23 1429.25 1544.62 1428.83 1550.48 1429.08C1550.87 1429.1 1552.82 1429.41 1554.81 1429.48C1556.18 1429.54 1560.46 1429.44 1562.22 1429.55C1563.97 1429.66 1560.39 1429.78 1562.46 1429.96C1564.55 1430.14 1569.42 1430.06 1569.99 1430.41ZM1502.44 1528.57C1506.53 1528.28 1491.57 1528.24 1495.15 1528.55C1495.34 1528.56 1502.24 1528.58 1502.44 1528.57ZM1504.81 1562.84C1511.4 1562.47 1501.7 1562.22 1496.61 1562.48C1491.52 1562.74 1502.81 1562.96 1504.81 1562.84ZM1509.62 1566.68C1514.82 1566.25 1493.62 1566.18 1497.9 1566.65C1498.15 1566.67 1509.32 1566.71 1509.62 1566.68ZM1508.07 1430.86C1508.27 1430.86 1508.46 1430.63 1508.27 1430.62C1503.52 1430.5 1503.13 1430.96 1508.07 1430.86ZM1514.86 1570.5C1517.73 1570.36 1514.42 1569.97 1510.85 1570.14C1507.99 1570.27 1511.3 1570.66 1514.86 1570.5ZM1518.4 1513.79C1518.63 1513.78 1518.83 1513.62 1517.57 1513.62C1513.51 1513.63 1514.66 1513.86 1518.4 1513.79ZM1515.11 1576.97C1515.91 1576.02 1533.42 1575.44 1531.45 1576.48C1531.09 1576.67 1525.86 1576.07 1524.28 1576.31C1521.41 1576.75 1532.4 1577.04 1526.51 1577.49C1525.43 1577.57 1515.02 1577.03 1515.08 1576.97C1515.09 1576.97 1515.1 1576.97 1515.11 1576.97ZM1520.41 1528.4C1520.6 1528.4 1520.79 1528.17 1520.6 1528.16C1515.85 1528.04 1515.47 1528.5 1520.41 1528.4ZM1527.65 1504.2C1528.07 1504.19 1528.47 1503.66 1528.08 1503.64C1520.32 1503.37 1519.5 1504.44 1527.65 1504.2ZM1531.35 1543.72C1536.13 1543.96 1536.69 1544.26 1530.69 1544.46C1531.01 1544.21 1531.06 1543.96 1531.35 1543.72ZM1508.68 1177.99C1501.73 1179.29 1492.62 1177.9 1485.7 1175.99C1483.53 1175.4 1484.62 1172.75 1483.13 1172.22C1480.2 1171.19 1477.47 1172.49 1474.57 1171.26C1473.61 1170.84 1474.81 1166.64 1473.8 1166.3C1468.28 1164.44 1463.07 1165.51 1457.48 1164.62C1429.97 1160.22 1402.92 1158.64 1375.07 1156.73C1365.89 1156.1 1354.73 1152.29 1345.24 1153.96C1344.13 1154.15 1344.79 1157.84 1344.58 1158.14C1341.28 1162.79 1342.38 1155.35 1340.22 1154.36C1331.66 1150.46 1322.14 1150.12 1313.9 1151.55C1310.39 1152.16 1313.9 1159.48 1310.37 1155.37C1310.13 1155.09 1311.02 1151.18 1310.06 1150.76C1307.88 1149.83 1303.74 1150.52 1302.05 1150.21C1298.79 1149.6 1298.26 1149.64 1295.17 1149.59C1290.96 1149.5 1285.96 1147.55 1281.44 1148.44C1280.47 1148.64 1281.75 1152.65 1280.21 1153.33C1278.67 1154.01 1274.6 1153.67 1273.23 1152.73C1271.85 1151.78 1272.44 1148.63 1272.2 1147.91C1270.2 1141.81 1265.49 1150.26 1264.88 1150.46C1253.83 1154.02 1244.35 1149.21 1233.98 1149.23C1226.1 1149.25 1217.68 1150.84 1210.19 1150.62C1201.26 1150.34 1193.7 1148.17 1185.02 1148.54C1184.11 1148.58 1185.18 1153.29 1184.06 1153.35C1172.19 1153.89 1160.39 1153.38 1148.57 1150.2C1147.38 1149.87 1148.91 1145.73 1147.73 1145.16C1140.47 1141.76 1128.99 1133.58 1124.69 1151.61C1119.77 1150.91 1113.81 1150.18 1109.41 1146.55C1106.58 1144.21 1109.33 1139.7 1105.85 1141.62C1105.06 1142.05 1106.08 1146 1104.9 1146.34C1099.95 1147.79 1094.53 1146.51 1089.62 1148.55C1088.63 1148.97 1088.9 1152.51 1088.62 1153.15C1086.24 1158.31 1082.29 1149.78 1081.42 1149.16C1074.86 1144.53 1070.06 1146.35 1063.95 1146.24C1062.53 1146.21 1064.21 1150.97 1062.84 1151.11C1055.76 1151.79 1048.42 1151.38 1041.48 1149.27C1039.94 1148.79 1041.36 1144.74 1040.62 1144.31C1037.37 1142.43 1036.65 1150.08 1033.53 1148.43C1032.88 1148.09 1033.25 1144.62 1033.13 1144.24C1031.25 1138.26 1029.62 1146.73 1029.14 1146.92C1023.03 1149.47 1019.13 1140.63 1013.23 1141.88C1012.53 1142.04 1014.12 1146.43 1012.14 1146.61C998.923 1147.82 984.949 1146.61 971.87 1143.1C969.837 1142.56 971.288 1139.27 971.16 1138.86C969.075 1132.51 967.725 1141.02 967.062 1141.34C961.831 1143.65 956.945 1136.51 953.391 1146.64C931.238 1143.13 909.187 1148.82 887.217 1139.74C886.937 1139.64 887.438 1135.45 886.881 1135.25C880.17 1132.9 881.459 1139.41 877.019 1147.38C875.9 1149.38 872.498 1139.76 872.197 1139.06C871.1 1136.46 872.238 1130.23 871.87 1129.73C868.831 1125.78 869.326 1146.39 865.226 1146.39C865.098 1146.36 865.637 1142.57 865.293 1142.19C864.224 1141 863.163 1142.51 862.117 1141.21C859.723 1138.18 858.87 1128.17 855.213 1134C854.75 1134.75 855.457 1146.45 851.797 1145.89C850.337 1145.66 843.878 1145.86 842.067 1145.11C840.259 1144.35 841.501 1140.58 841.372 1140.42C836.5 1135.44 838.347 1133.37 835.906 1126C833.465 1118.65 834.142 1136.17 833.147 1138.13C832.151 1140.08 828.578 1135.97 827.701 1134.54C826.823 1133.11 827.917 1130.72 827.137 1129.91C821.965 1124.62 824.867 1138.61 823.162 1141.39C819.144 1147.98 816.014 1134.98 812.335 1133.7C811.34 1133.36 812.152 1136.32 811.266 1136.6C807.755 1137.65 805.644 1133.6 801.65 1137.32C800.997 1137.92 797.768 1145.74 795.678 1140C795.382 1139.18 796.223 1135.94 794.727 1135.21C792.492 1134.12 788.465 1133.42 786.062 1134.5C784.289 1135.3 786.322 1140.64 784.089 1138.98C783.097 1138.24 784.936 1135.12 783.072 1133.99C781.217 1132.86 776.476 1132.99 774.672 1133.1C772.871 1133.21 773.857 1137.26 773.712 1137.53C772.831 1139.09 769.375 1141.05 769.069 1141.04C753.664 1141.54 739.458 1134.71 724.46 1136.97C723.282 1137.14 724.067 1141.41 723.887 1141.48C719.857 1143.27 723.034 1131.92 720.219 1128.12C720.626 1136.78 718.965 1135.21 716.126 1136.16C714.758 1136.63 715.503 1139.98 715.378 1140.33C713.35 1145.42 711.937 1138.84 711.574 1137.49C710.231 1132.54 708.769 1138.39 707.854 1135.08C706.941 1131.8 709.043 1126.93 706.321 1126.99C705.558 1130.09 707.579 1138.2 705.512 1139.51C697.714 1144.48 683.157 1138.12 676.887 1137.46C670.63 1136.8 668.609 1137.37 664.962 1136.25C658.376 1134.22 660.79 1140.24 656.7 1142.99C652.598 1145.74 654.592 1130.95 654.003 1127.77C653.424 1124.59 652.792 1127.86 652.072 1126.11C651.354 1124.36 652.908 1122.2 651.22 1121.55C649.531 1120.89 644.915 1126.55 644.316 1129.87C643.05 1136.92 645.131 1144.31 640.663 1141.71C640.406 1141.56 641.24 1137.67 640.256 1137.28C632.44 1134.28 624.32 1134.09 616.515 1131.45C615.441 1131.08 616.401 1126.75 615.776 1126.48C609.27 1123.72 611.596 1131.01 608.03 1139.12C608.831 1128.33 606.859 1121.73 601.921 1121.67C598.952 1121.63 599.463 1126.34 597.543 1129.66C596.967 1130.66 594.867 1127.42 594.486 1129.64C593.231 1136.88 595.21 1144.99 590.119 1141.76C589.895 1141.61 590.606 1137.64 589.835 1137.4C584.846 1135.83 584.249 1143.41 578.856 1144.32C574.629 1145.04 567.111 1140.43 562.298 1139.67C562.4 1127.55 557.853 1130.32 556.009 1138.68C552.886 1138.34 549.512 1138.82 546.493 1137.66C545.454 1137.27 546.137 1133.75 546.006 1133.37C543.996 1127.42 542.638 1135.56 541.964 1135.88C534.657 1138.98 528.703 1132.81 521.73 1138.84C521.482 1139.05 521.081 1147.48 519.217 1141.33C519.097 1140.9 521.4 1137.07 518.119 1136.77C514.838 1136.48 508.653 1131.96 504.098 1135.87C502.996 1136.8 500.207 1143.64 497.97 1138.3C497.671 1137.57 497.998 1135.16 497.567 1133.81C496.176 1129.53 495.417 1138.05 493.782 1130.81C492.147 1123.58 488.745 1118.16 484.152 1123.15C484.005 1123.3 482.918 1130.05 481.473 1129.94C479.167 1129.76 475.893 1128.36 473.486 1128.4C472.333 1128.42 473.07 1132.61 472.87 1132.69C465.118 1135.04 459.601 1131.3 451.297 1129.68C449.774 1129.38 445.399 1135.09 442.452 1130.57C439.216 1125.63 442.541 1105.05 435.103 1109.96C432.103 1111.92 428.305 1138.02 422.913 1124.49C412.457 1127.85 402.787 1120.92 392.301 1125.71C391.829 1125.92 390.338 1133.21 389.23 1133.11C387.584 1132.95 386.681 1129.54 385.506 1129.32C380.582 1128.29 376.075 1131.2 371.328 1130.75C369.526 1130.59 370.156 1127.07 368.006 1126.87C365.858 1126.68 364.425 1131.31 361.514 1129.07C359.315 1127.37 357.116 1117.89 354.198 1116.79C354.086 1126.13 352.082 1125.94 348.519 1128.41C347.834 1128.89 348.569 1132.14 348.245 1132.53C346.926 1134.21 345.706 1131.51 344.454 1133.34C344.15 1133.78 344.135 1136.97 343.886 1137.51C341.769 1142.21 338.282 1135.03 337.683 1133.78C335.387 1129.03 334.314 1133.18 332.553 1131.31C330.795 1129.44 333.424 1127.11 331.37 1125.97C327.113 1123.63 321.643 1124.14 317.32 1123.99C315.595 1123.96 316.772 1128.22 316.525 1128.31C312.958 1129.39 309.351 1124.86 307.373 1133.34C304.9 1111.4 305.222 1135.47 300.124 1131.08C299.722 1130.72 299.211 1120.35 300.753 1118.82C302.295 1117.3 304.633 1120.55 306.772 1118.17C307.279 1117.61 310.181 1107.89 310.577 1107.3C313.679 1102.7 314.118 1118.2 314.282 1119.06C316.143 1128.25 319.689 1117.77 320.623 1117.05C324.896 1113.73 328.525 1115.91 332.099 1113.54C334.436 1112.01 334.664 1101.86 336.5 1102.17C342.6 1103.2 344.73 1117.37 350.478 1105.08C351.711 1102.46 350.486 1091.36 354.903 1100.09C355.18 1100.64 358.46 1108.62 360.354 1103.57C360.592 1102.93 360.585 1099.7 360.898 1099.43C363.001 1097.67 364.404 1100.25 366.695 1099.01C368.986 1097.78 371.741 1095.94 374.357 1097.03C375.933 1097.69 377.956 1103.72 378.71 1105.2C380.841 1109.45 383.126 1102.48 384.446 1107.62C385.777 1112.8 383.174 1120.66 386.665 1124C386.794 1115.59 387.091 1106.97 387.299 1098.51C394.949 1098.81 402.475 1101.53 410.151 1101.15C411.102 1101.1 410.129 1096.58 411.149 1096.41C415.453 1095.69 419.212 1098.91 423.675 1097.63C427.13 1096.62 430.918 1091.83 434.531 1090.63C436.737 1100.25 442.098 1096.98 445.992 1097.86C447.356 1098.16 447.265 1100.73 448.235 1101.57C451.895 1104.67 450.18 1096.17 451.183 1094.83C455.488 1089.12 455.856 1108.36 460.931 1107.89C461.2 1107.87 464.487 1097.61 464.939 1096.97C467.816 1092.81 465.415 1100.54 467.215 1101.3C470.502 1102.69 472.786 1105.14 476.642 1102.13C477.766 1101.24 480.464 1094.85 482.647 1099.79C482.934 1100.44 482.775 1103.83 483.007 1104.03C487.192 1107.34 487.302 1096.69 489.693 1093.08C492.085 1089.47 495.779 1096.83 496.531 1098.95C498.498 1104.43 495.024 1101.29 494.917 1101.83C493.666 1108.23 496.361 1107.13 498.419 1107.67C498.717 1118.11 501.596 1117.48 500.553 1108.19C500.435 1107.17 498.833 1108.14 498.419 1107.67C500.226 1097.42 503.39 1096.11 506.885 1105.68C508.521 1110.17 506.975 1115.4 511.944 1113.49C514.199 1112.63 513.328 1105.43 515.318 1103.47C519.865 1099 525.773 1105.71 530.461 1104.65C532.162 1104.27 530.505 1100.33 531.667 1099.93C534.753 1098.87 537.474 1101.82 540.573 1100.31C540.854 1100.16 540.168 1096.04 541.132 1095.99C548.437 1095.51 554.798 1098.15 562.426 1098.22C566.111 1098.26 572.701 1095.99 576.518 1096.44C583.136 1097.21 591.275 1103.2 596.928 1101.75C600.615 1100.81 599.806 1096.69 601.386 1093.89C604.434 1088.44 609.83 1098.19 610.557 1099.7C610.579 1099.75 607.407 1100.72 609.099 1102.84C610.084 1107.25 610.521 1099.72 610.557 1099.7C611.034 1100.68 617.372 1101.61 618.63 1100.83C619.314 1100.39 618.931 1096.49 619.288 1096.34C627.762 1092.84 636.251 1091.85 644.846 1093.68C644.997 1093.76 644.769 1098.12 645.125 1098.26C650.101 1100.2 653.287 1094.85 657.391 1091.68C661.494 1088.51 664.748 1089.57 667.177 1097.07C670.273 1096.13 674.714 1099.44 677.271 1101.45C679.826 1103.47 680.183 1094.96 680.408 1094.79C687.422 1089.41 691.477 1094.28 698.754 1095.04C702.214 1095.41 709.077 1094.18 712.823 1093.25C715.784 1092.5 717.567 1094.49 720.295 1093.22C720.664 1093.05 720.291 1089.26 720.404 1089.12C723.449 1084.59 721.985 1093.84 722.614 1095.5C724.893 1101.51 726.301 1104.71 730.2 1101.88C731.099 1101.23 733.718 1087.91 735.358 1087.13C737.489 1086.14 736.684 1090.92 738.916 1089.76C739.107 1089.66 739.067 1086.72 740.445 1086.85C746.838 1087.41 753.808 1089.13 760.452 1088.83C761.36 1088.8 760.196 1084.13 761.507 1084.01C767.66 1083.46 774.404 1083.63 780.398 1085.82C781.873 1086.37 780.949 1089.64 781.269 1090.61C783.235 1096.49 786.023 1087.95 786.484 1087.79C797.459 1083.68 805.858 1091.41 817.044 1087.73C817.653 1087.52 822.34 1078.36 824.431 1086.21C824.574 1086.74 826.643 1094.77 828.472 1089.28C828.586 1088.93 827.297 1084.8 829.546 1085.22C831.796 1085.64 835.416 1082.88 838.509 1087.42C839.488 1088.85 841.802 1096.87 844.722 1090.48C844.912 1090.03 849.421 1075.59 851.03 1085.55C851.291 1087.19 851.018 1097.74 854.503 1092.34C855.169 1091.29 853.96 1088.93 855.715 1087.46C858.403 1085.2 861.965 1088.03 865.269 1083.33C865.845 1082.49 868.299 1075.33 870.266 1080.77C870.574 1081.62 869.989 1085.14 871.028 1085.54C875.97 1087.43 881.144 1085.07 886.161 1087.51C887.939 1088.36 887.03 1094.06 888.882 1095.58C890.735 1097.11 894.468 1098.57 896.407 1095.97C898.346 1093.37 896.227 1084.3 899.132 1083.57C911.761 1080.42 924.271 1085.74 936.881 1086.52C938.751 1086.63 937.2 1083.39 939.956 1083.33C950.118 1083.08 967.662 1080.04 976.479 1086.94C983.544 1092.47 974.653 1096.67 980.052 1098.92C982.657 1099.99 985.475 1089.44 986.104 1089.11C992.248 1085.74 996.517 1090.41 1002.05 1088.98C1003.19 1088.68 1002.07 1084.41 1003.04 1084.2C1006.36 1083.46 1009.85 1085.37 1013.02 1085.02C1014.44 1084.85 1014.18 1081.58 1015.49 1081.84C1018.62 1082.4 1021.39 1083.78 1024.45 1086.84C1024.73 1087.11 1022.85 1091.18 1025.17 1091.33C1028.92 1091.56 1033.58 1094.58 1037.89 1091.46C1039.17 1090.52 1039.22 1083.06 1041.98 1088.22C1042.55 1089.29 1041.82 1098.25 1045.02 1090.51C1045.56 1089.22 1050.95 1078.78 1053.59 1085.51C1054.29 1087.28 1056.07 1094.62 1057.61 1093.46C1057.82 1093.28 1056.98 1089.27 1058.26 1088.88C1062.76 1087.57 1067.47 1088 1072.09 1086.74C1073.33 1086.4 1071.49 1082.25 1073.33 1081.87C1078.38 1080.83 1084.7 1081.88 1089.64 1083.18C1091.47 1083.67 1090.21 1087.1 1090.34 1087.48C1092.47 1093.56 1093.73 1085.35 1094.44 1084.87C1098.85 1082 1102.2 1085.86 1106.26 1084.84C1107.38 1084.57 1106.58 1080.65 1106.81 1080.31C1109.12 1076.89 1107.4 1083.92 1108.86 1084.7C1112.96 1086.89 1117.53 1086.58 1121.68 1086.08C1123.2 1085.89 1121.49 1081.35 1122.86 1081.23C1130.95 1080.45 1139.36 1080.88 1147.26 1083.39C1148.74 1083.87 1147.81 1087.36 1148.12 1088.16C1150.25 1093.75 1153.38 1086.13 1154.1 1085.4C1157.38 1082.09 1158.65 1085.18 1161.54 1084.6C1175.67 1081.73 1193.12 1083.78 1206.45 1085.04C1223.83 1086.67 1237.31 1089.99 1253.89 1089.13C1254.94 1089.08 1253.88 1084.43 1254.79 1084.33C1266.51 1083.21 1278.05 1085.02 1289.79 1083.68C1290.76 1083.58 1289.37 1079.17 1290.92 1078.86C1294.09 1078.19 1298.11 1078.43 1301.32 1079.84C1302.88 1080.51 1300.78 1084.3 1302.36 1084.9C1306.03 1086.32 1309.96 1086.63 1313.72 1085.93C1315.33 1085.62 1312.91 1081.11 1314.99 1081.06C1329.19 1080.61 1343.13 1079.83 1357.47 1085.67C1358.46 1086.07 1359.32 1095.23 1361.41 1093.48C1361.57 1090.93 1361.56 1087.94 1361.63 1085.22C1382.29 1083.76 1402.75 1086.94 1423.47 1087.43C1424.34 1087.45 1422.83 1082.59 1424.52 1082.61C1434.31 1082.68 1443.82 1081.33 1453.83 1086.16C1454.83 1086.63 1454.32 1095.17 1457.25 1093.88C1457.76 1093.64 1462.17 1092.5 1463.31 1090.65C1463.47 1090.37 1462.66 1086.38 1464.08 1086.27C1472.34 1085.66 1481 1086.57 1489.24 1089.01C1490.57 1089.41 1489.15 1093.65 1490.1 1093.98C1496.82 1096.23 1504.13 1093 1510.56 1096.86C1514.86 1099.45 1513.27 1106.79 1515.55 1114.01C1515.87 1115.03 1518.54 1115.2 1518.67 1119.4C1519.03 1129.97 1517.74 1141.54 1518.27 1152.8C1518.38 1155.23 1521.94 1152.62 1519.83 1158.48C1519.69 1158.87 1517.1 1160.82 1516.46 1162.81C1516.02 1164.18 1516.82 1168.46 1515.91 1170.22C1515.01 1171.97 1514.02 1168.39 1512.52 1170.46C1511.02 1172.55 1511.68 1177.42 1508.68 1177.99ZM688.779 1110.44C691.146 1114.53 691.495 1099.57 688.935 1103.15C688.811 1103.34 688.657 1110.24 688.779 1110.44ZM402.433 1112.81C405.526 1119.4 407.644 1109.7 405.461 1104.61C403.278 1099.52 401.49 1110.81 402.433 1112.81ZM370.349 1117.62C373.965 1122.82 374.534 1101.62 370.661 1105.9C370.436 1106.15 370.137 1117.32 370.349 1117.62ZM1504.96 1116.07C1504.99 1116.27 1506.9 1116.46 1506.95 1116.27C1507.97 1111.52 1504.14 1111.13 1504.96 1116.07ZM338.511 1122.86C339.64 1125.73 342.89 1122.42 341.487 1118.85C340.358 1115.99 337.105 1119.3 338.511 1122.86ZM812.236 1126.4C812.273 1126.63 813.645 1126.83 813.618 1125.57C813.524 1121.51 811.615 1122.66 812.236 1126.4ZM284.399 1123.11C292.394 1123.91 297.241 1141.42 288.535 1139.45C286.958 1139.09 291.932 1133.86 289.926 1132.28C286.254 1129.41 283.816 1140.4 280.069 1134.51C279.391 1133.43 283.943 1123.02 284.413 1123.08C284.408 1123.09 284.403 1123.1 284.399 1123.11ZM690.142 1128.41C690.189 1128.6 692.089 1128.79 692.134 1128.6C693.163 1123.85 689.336 1123.47 690.142 1128.41ZM892.299 1135.65C892.404 1136.07 896.812 1136.47 896.955 1136.08C899.255 1128.32 890.344 1127.5 892.299 1135.65ZM562.223 1139.35C560.15 1144.13 557.671 1144.69 556.019 1138.69C558.078 1139.01 560.152 1139.06 562.223 1139.35ZM1569.99 1131.36C1571.29 1133.05 1569.9 1135.25 1567.99 1136.93C1567.4 1137.46 1564.75 1137.19 1564.22 1137.55C1563.19 1138.26 1564.49 1138.92 1563.26 1139.63C1562.84 1139.86 1558.64 1139.57 1558.3 1139.81C1556.44 1141.15 1557.51 1142.41 1556.62 1143.77C1552.22 1150.43 1550.64 1156.98 1548.73 1163.73C1548.1 1165.95 1544.29 1168.66 1545.96 1170.95C1546.15 1171.22 1549.84 1171.06 1550.14 1171.11C1554.79 1171.91 1547.35 1171.65 1546.36 1172.17C1542.46 1174.25 1542.12 1176.55 1543.55 1178.55C1544.16 1179.4 1551.48 1178.55 1547.37 1179.4C1547.09 1179.46 1543.18 1179.24 1542.76 1179.48C1541.83 1180.01 1542.52 1181.01 1542.21 1181.42C1541.6 1182.21 1541.64 1182.34 1541.59 1183.08C1541.5 1184.1 1539.55 1185.32 1540.44 1186.41C1540.64 1186.64 1544.65 1186.34 1545.33 1186.71C1546.01 1187.08 1545.67 1188.07 1544.73 1188.4C1543.78 1188.73 1540.63 1188.59 1539.91 1188.65C1533.81 1189.13 1542.26 1190.28 1542.46 1190.42C1546.02 1193.1 1541.21 1195.39 1541.23 1197.91C1541.25 1199.81 1542.84 1201.85 1542.62 1203.67C1542.34 1205.83 1540.17 1207.67 1540.54 1209.77C1540.58 1209.99 1545.29 1209.73 1545.35 1210C1545.89 1212.88 1545.38 1215.73 1542.2 1218.6C1541.87 1218.88 1537.73 1218.51 1537.16 1218.8C1533.76 1220.56 1525.58 1223.34 1543.61 1224.38C1542.91 1225.57 1542.18 1227.02 1538.55 1228.08C1536.21 1228.77 1531.7 1228.1 1533.62 1228.95C1534.05 1229.14 1538 1228.89 1538.34 1229.17C1539.79 1230.38 1538.51 1231.69 1540.55 1232.88C1540.97 1233.12 1544.51 1233.05 1545.15 1233.12C1550.31 1233.7 1541.78 1234.65 1541.16 1234.86C1536.53 1236.45 1538.35 1237.61 1538.24 1239.1C1538.21 1239.44 1542.97 1239.03 1543.11 1239.36C1543.79 1241.08 1543.38 1242.86 1541.27 1244.54C1540.79 1244.91 1536.74 1244.57 1536.31 1244.75C1534.43 1245.53 1542.08 1245.71 1540.43 1246.46C1540.09 1246.62 1536.62 1246.53 1536.24 1246.56C1530.26 1247.02 1538.73 1247.41 1538.92 1247.53C1541.47 1249.01 1532.63 1249.95 1533.88 1251.38C1534.04 1251.55 1538.43 1251.17 1538.61 1251.65C1539.82 1254.85 1538.61 1258.23 1535.1 1261.4C1534.56 1261.89 1531.27 1261.54 1530.86 1261.57C1524.51 1262.08 1533.02 1262.4 1533.34 1262.57C1535.65 1263.83 1528.51 1265.02 1538.64 1265.88C1535.13 1271.24 1540.82 1276.59 1531.74 1281.91C1531.64 1281.97 1527.45 1281.85 1527.25 1281.99C1524.9 1283.61 1531.41 1283.3 1539.38 1284.38C1541.38 1284.65 1531.76 1285.47 1531.06 1285.55C1528.46 1285.81 1522.23 1285.54 1521.73 1285.62C1517.78 1286.36 1538.39 1286.24 1538.39 1287.23C1538.36 1287.27 1534.57 1287.13 1534.19 1287.22C1533 1287.48 1534.51 1287.73 1533.21 1287.99C1530.18 1288.57 1520.17 1288.77 1526 1289.66C1526.75 1289.77 1538.45 1289.6 1537.89 1290.49C1537.66 1290.84 1537.86 1292.41 1537.11 1292.84C1536.35 1293.28 1532.58 1292.98 1532.42 1293.01C1527.44 1294.19 1525.37 1293.75 1518 1294.34C1510.65 1294.93 1528.17 1294.76 1530.13 1295.01C1532.08 1295.25 1527.97 1296.11 1526.54 1296.32C1525.11 1296.54 1522.72 1296.27 1521.91 1296.46C1516.62 1297.71 1530.61 1297.01 1533.39 1297.42C1539.98 1298.4 1526.98 1299.16 1525.7 1300.05C1525.36 1300.29 1528.32 1300.09 1528.6 1300.31C1529.65 1301.16 1525.6 1301.67 1529.32 1302.63C1529.92 1302.79 1537.74 1303.58 1532 1304.08C1531.18 1304.15 1527.94 1303.95 1527.21 1304.31C1526.12 1304.85 1525.42 1305.83 1526.5 1306.41C1527.3 1306.84 1532.64 1306.35 1530.98 1306.89C1530.24 1307.13 1527.12 1306.68 1525.99 1307.14C1524.86 1307.58 1524.99 1308.73 1525.1 1309.17C1525.21 1309.61 1529.26 1309.37 1529.53 1309.4C1531.09 1309.62 1533.05 1310.45 1533.04 1310.53C1533.54 1314.26 1526.71 1317.7 1528.97 1321.33C1529.14 1321.62 1533.41 1321.43 1533.48 1321.47C1535.27 1322.45 1523.92 1321.68 1520.12 1322.36C1528.78 1322.26 1527.21 1322.66 1528.16 1323.35C1528.63 1323.68 1531.98 1323.5 1532.33 1323.53C1537.42 1324.02 1530.84 1324.37 1529.49 1324.46C1524.54 1324.78 1530.39 1325.13 1527.08 1325.36C1523.8 1325.58 1518.93 1325.07 1518.99 1325.73C1522.09 1325.91 1530.2 1325.42 1531.51 1325.92C1536.48 1327.81 1530.12 1331.34 1529.46 1332.86C1528.8 1334.37 1529.37 1334.86 1528.25 1335.75C1526.22 1337.34 1532.24 1336.76 1534.99 1337.75C1537.74 1338.74 1522.95 1338.26 1519.77 1338.4C1516.59 1338.54 1519.86 1338.69 1518.11 1338.87C1516.36 1339.04 1514.2 1338.67 1513.55 1339.08C1512.89 1339.48 1518.55 1340.6 1521.87 1340.75C1528.92 1341.05 1536.31 1340.55 1533.71 1341.63C1533.56 1341.69 1529.67 1341.49 1529.28 1341.73C1526.28 1343.62 1526.09 1345.59 1523.45 1347.48C1523.08 1347.74 1518.75 1347.51 1518.48 1347.66C1515.72 1349.24 1523.01 1348.67 1531.12 1349.54C1520.33 1349.34 1513.73 1349.82 1513.67 1351.02C1513.63 1351.74 1518.34 1351.61 1521.66 1352.08C1522.66 1352.22 1519.42 1352.73 1521.64 1352.82C1528.88 1353.12 1536.99 1352.64 1533.76 1353.88C1533.61 1353.93 1529.64 1353.76 1529.4 1353.95C1527.83 1355.15 1535.41 1355.3 1536.32 1356.6C1537.04 1357.63 1532.43 1359.45 1531.67 1360.62C1519.55 1360.59 1522.32 1361.69 1530.68 1362.14C1530.34 1362.9 1530.82 1363.71 1529.66 1364.44C1529.27 1364.7 1525.75 1364.53 1525.37 1364.56C1519.42 1365.05 1527.56 1365.38 1527.88 1365.54C1530.98 1367.31 1524.81 1368.75 1530.84 1370.44C1531.05 1370.5 1539.48 1370.6 1533.33 1371.05C1532.9 1371.08 1529.07 1370.52 1528.77 1371.32C1528.48 1372.11 1523.96 1373.61 1527.87 1374.71C1528.8 1374.98 1535.64 1375.66 1530.3 1376.2C1529.57 1376.27 1527.16 1376.19 1525.81 1376.3C1521.53 1376.63 1530.05 1376.82 1522.81 1377.21C1515.58 1377.61 1510.16 1378.43 1515.15 1379.55C1515.3 1379.58 1522.05 1379.84 1521.94 1380.19C1521.76 1380.75 1520.36 1381.55 1520.4 1382.13C1520.42 1382.41 1524.61 1382.23 1524.69 1382.28C1527.04 1384.16 1523.3 1385.49 1521.68 1387.5C1521.38 1387.87 1527.09 1388.93 1522.57 1389.65C1517.63 1390.43 1497.05 1389.63 1501.96 1391.43C1503.92 1392.15 1530.02 1393.07 1516.49 1394.38C1519.85 1396.91 1512.92 1399.26 1517.71 1401.8C1517.92 1401.91 1525.21 1402.27 1525.11 1402.54C1524.95 1402.94 1521.54 1403.16 1521.32 1403.44C1520.29 1404.64 1523.2 1405.73 1522.75 1406.88C1522.59 1407.31 1519.07 1407.16 1518.87 1407.68C1518.68 1408.2 1523.31 1408.55 1521.07 1409.25C1519.37 1409.79 1509.89 1410.32 1508.79 1411.03C1518.13 1411.05 1517.94 1411.54 1520.41 1412.4C1520.89 1412.57 1524.14 1412.39 1524.53 1412.47C1526.21 1412.79 1523.51 1413.08 1525.34 1413.39C1525.78 1413.46 1528.97 1413.46 1529.51 1413.52C1534.21 1414.04 1527.03 1414.88 1525.78 1415.03C1521.03 1415.58 1525.18 1415.84 1523.31 1416.27C1521.44 1416.7 1519.11 1416.06 1517.97 1416.56C1515.63 1417.59 1516.14 1418.91 1515.99 1419.96C1515.96 1420.38 1520.22 1420.09 1520.31 1420.15C1521.39 1421.02 1516.86 1421.89 1525.34 1422.37C1503.4 1422.97 1527.47 1422.89 1523.08 1424.13C1522.72 1424.22 1512.35 1424.35 1510.82 1423.97C1509.3 1423.6 1512.55 1423.03 1510.17 1422.51C1509.61 1422.39 1499.89 1421.69 1499.3 1421.59C1494.7 1420.84 1510.2 1420.74 1511.06 1420.7C1520.25 1420.24 1509.77 1419.39 1509.05 1419.16C1505.73 1418.12 1507.91 1417.25 1505.54 1416.38C1504.01 1415.81 1493.86 1415.76 1494.17 1415.31C1495.2 1413.84 1509.37 1413.32 1497.08 1411.93C1494.46 1411.63 1483.36 1411.93 1492.09 1410.86C1492.64 1410.79 1500.62 1409.99 1495.57 1409.53C1494.93 1409.48 1491.7 1409.48 1491.43 1409.4C1489.67 1408.89 1492.25 1408.55 1491.01 1408C1489.78 1407.44 1487.94 1406.78 1489.03 1406.14C1489.69 1405.76 1495.72 1405.27 1497.2 1405.09C1501.45 1404.57 1494.48 1404.02 1499.62 1403.7C1504.8 1403.38 1512.66 1404.01 1516 1403.16C1507.59 1403.13 1498.97 1403.06 1490.51 1403.01C1490.81 1401.15 1493.53 1399.33 1493.15 1397.47C1493.1 1397.24 1488.58 1397.48 1488.41 1397.23C1487.69 1396.19 1490.91 1395.28 1489.63 1394.2C1488.62 1393.36 1483.83 1392.44 1482.63 1391.57C1492.25 1391.03 1488.98 1389.73 1489.86 1388.79C1490.16 1388.46 1492.73 1388.48 1493.57 1388.25C1496.67 1387.36 1488.17 1387.78 1486.83 1387.53C1481.12 1386.49 1500.36 1386.4 1499.89 1385.17C1499.87 1385.11 1489.61 1384.31 1488.97 1384.2C1484.81 1383.5 1492.54 1384.08 1493.3 1383.65C1494.69 1382.85 1497.14 1382.3 1494.13 1381.37C1493.24 1381.09 1486.85 1380.44 1491.79 1379.91C1492.44 1379.84 1495.83 1379.88 1496.03 1379.82C1499.34 1378.81 1488.69 1378.78 1485.08 1378.2C1481.47 1377.62 1488.83 1376.73 1490.95 1376.55C1496.43 1376.07 1493.29 1376.91 1493.83 1376.94C1500.23 1377.24 1499.13 1376.59 1499.67 1376.09C1510.11 1376.02 1509.48 1375.32 1500.19 1375.57C1499.17 1375.6 1500.14 1375.99 1499.67 1376.09C1489.42 1375.65 1488.11 1374.89 1497.68 1374.04C1502.17 1373.64 1507.4 1374.02 1505.49 1372.81C1504.63 1372.27 1497.43 1372.48 1495.47 1372C1491 1370.89 1497.71 1369.46 1496.65 1368.33C1496.27 1367.92 1492.33 1368.32 1491.93 1368.04C1490.87 1367.29 1493.82 1366.63 1492.31 1365.88C1492.16 1365.81 1488.04 1365.98 1487.99 1365.74C1487.51 1363.97 1490.15 1362.43 1490.22 1360.58C1490.26 1359.69 1487.99 1358.1 1488.44 1357.17C1489.21 1355.57 1495.2 1353.6 1493.75 1352.23C1492.81 1351.33 1488.69 1351.53 1485.89 1351.15C1480.44 1350.41 1490.19 1349.1 1491.7 1348.93C1491.75 1348.92 1492.72 1349.69 1494.84 1349.28C1499.25 1349.04 1491.72 1348.93 1491.7 1348.93C1492.68 1348.81 1493.61 1347.27 1492.83 1346.97C1492.39 1346.8 1488.49 1346.9 1488.34 1346.81C1484.84 1344.76 1483.85 1342.7 1485.68 1340.62C1485.76 1340.58 1490.12 1340.64 1490.26 1340.55C1492.2 1339.35 1486.85 1338.57 1483.68 1337.58C1480.51 1336.59 1481.57 1335.8 1489.07 1335.21C1488.13 1334.46 1491.44 1333.38 1493.45 1332.76C1495.47 1332.15 1486.96 1332.06 1486.79 1332C1481.41 1330.31 1486.28 1329.32 1487.04 1327.56C1487.41 1326.72 1486.18 1325.06 1485.25 1324.15C1484.5 1323.44 1486.49 1323 1485.22 1322.34C1485.05 1322.25 1481.26 1322.34 1481.12 1322.32C1476.59 1321.58 1485.84 1321.93 1487.5 1321.78C1493.51 1321.23 1496.71 1320.89 1493.88 1319.94C1493.23 1319.73 1479.91 1319.09 1479.13 1318.69C1478.14 1318.18 1482.92 1318.37 1481.76 1317.83C1481.66 1317.79 1478.72 1317.8 1478.85 1317.46C1479.41 1315.91 1481.13 1314.22 1480.83 1312.61C1480.8 1312.39 1476.13 1312.68 1476.01 1312.36C1475.46 1310.87 1475.63 1309.24 1477.82 1307.78C1478.37 1307.43 1481.64 1307.65 1482.61 1307.57C1488.49 1307.1 1479.95 1306.42 1479.79 1306.31C1475.68 1303.65 1483.41 1301.62 1479.73 1298.91C1479.52 1298.76 1470.36 1297.62 1478.21 1297.12C1478.74 1297.08 1486.77 1296.58 1481.28 1296.14C1480.93 1296.11 1476.8 1296.42 1477.22 1295.88C1477.64 1295.33 1474.88 1294.46 1479.42 1293.71C1480.85 1293.47 1488.87 1292.91 1482.48 1292.2C1482.03 1292.16 1467.59 1291.06 1477.55 1290.67C1479.19 1290.61 1489.74 1290.68 1484.34 1289.83C1483.29 1289.67 1480.93 1289.96 1479.46 1289.54C1477.2 1288.89 1480.03 1288.02 1475.33 1287.22C1474.49 1287.08 1467.33 1286.49 1472.77 1286.01C1473.62 1285.94 1477.14 1286.08 1477.54 1285.83C1479.43 1284.63 1477.07 1283.38 1479.51 1282.16C1480.36 1281.73 1486.06 1281.95 1487.58 1281.5C1489.11 1281.05 1490.57 1280.15 1487.97 1279.68C1485.37 1279.21 1476.3 1279.72 1475.57 1279.02C1472.42 1275.96 1477.74 1272.93 1478.52 1269.88C1478.63 1269.42 1475.39 1269.8 1475.33 1269.13C1475.08 1266.67 1472.04 1262.42 1478.94 1260.28C1484.47 1258.57 1488.67 1260.73 1490.92 1259.42C1491.99 1258.79 1481.44 1258.1 1481.11 1257.95C1477.74 1256.46 1482.41 1255.43 1480.98 1254.09C1480.68 1253.81 1476.41 1254.09 1476.2 1253.85C1475.46 1253.05 1477.37 1252.2 1477.02 1251.43C1476.85 1251.09 1473.58 1251.15 1473.84 1250.83C1474.4 1250.07 1475.78 1249.4 1478.84 1248.66C1479.11 1248.6 1483.18 1249.05 1483.33 1248.49C1483.56 1247.58 1486.58 1246.45 1483.46 1245.41C1482.52 1245.1 1475.06 1245.08 1480.22 1244.42C1481.29 1244.28 1490.25 1244.46 1482.51 1243.68C1481.22 1243.55 1470.78 1242.24 1477.51 1241.6C1479.28 1241.43 1486.62 1241 1485.46 1240.63C1485.28 1240.58 1481.27 1240.78 1480.88 1240.47C1479.57 1239.38 1480 1238.24 1478.74 1237.12C1478.4 1236.82 1474.25 1237.27 1473.87 1236.82C1472.83 1235.6 1473.88 1234.07 1475.18 1232.87C1475.67 1232.43 1479.1 1232.73 1479.48 1232.7C1485.56 1232.19 1477.35 1231.88 1476.87 1231.71C1474 1230.64 1477.86 1229.83 1476.84 1228.85C1476.57 1228.58 1472.65 1228.77 1472.31 1228.71C1468.89 1228.15 1475.92 1228.57 1476.7 1228.22C1478.89 1227.22 1478.58 1226.12 1478.08 1225.11C1477.89 1224.74 1473.35 1225.16 1473.23 1224.83C1472.45 1222.87 1472.88 1220.83 1475.39 1218.91C1475.87 1218.55 1479.36 1218.78 1480.16 1218.71C1485.75 1218.19 1478.13 1217.43 1477.4 1217.26C1474.09 1216.46 1477.18 1216.15 1476.6 1215.45C1473.73 1212.03 1475.78 1207.81 1477.04 1204.58C1478.67 1200.37 1481.99 1197.1 1481.13 1193.08C1481.08 1192.83 1476.43 1193.09 1476.33 1192.87C1475.21 1190.03 1477.02 1187.23 1475.68 1184.39C1475.58 1184.15 1471.17 1184.49 1470.86 1184.11C1470.19 1183.35 1470.43 1182.37 1471.84 1181.6C1472.51 1181.22 1476.3 1181.72 1476.9 1181.34C1478.32 1180.45 1478.63 1179.5 1477.93 1178.59C1477.62 1178.2 1473.11 1178.79 1473.06 1178.28C1472.61 1174.84 1471.83 1171.47 1477.67 1167.99C1478.07 1167.75 1487.23 1167.54 1485.48 1167.04C1482.93 1167 1479.94 1167 1477.22 1166.99C1475.76 1161.98 1478.94 1157.02 1479.43 1152.01C1479.45 1151.79 1474.59 1152.16 1474.61 1151.75C1474.68 1149.38 1473.33 1147.08 1478.16 1144.65C1478.63 1144.41 1487.17 1144.53 1485.88 1143.82C1485.64 1143.7 1484.5 1142.63 1482.65 1142.35C1482.37 1142.32 1478.38 1142.51 1478.27 1142.17C1477.66 1140.17 1478.57 1138.07 1481.01 1136.07C1481.41 1135.75 1485.65 1136.09 1485.98 1135.86C1488.23 1134.24 1485 1132.46 1488.86 1130.91C1491.45 1129.87 1498.79 1130.25 1506.01 1129.7C1507.03 1129.62 1507.2 1128.98 1511.4 1128.94C1521.97 1128.86 1533.54 1129.17 1544.8 1129.04C1547.23 1129.01 1544.62 1128.15 1550.48 1128.66C1550.87 1128.7 1552.82 1129.32 1554.81 1129.48C1556.18 1129.59 1560.46 1129.39 1562.22 1129.61C1563.97 1129.83 1560.39 1130.07 1562.46 1130.43C1564.55 1130.8 1569.42 1130.64 1569.99 1131.36ZM1502.44 1329.98C1506.53 1329.4 1491.57 1329.32 1495.15 1329.94C1495.34 1329.97 1502.24 1330.01 1502.44 1329.98ZM1504.81 1399.34C1511.4 1398.59 1501.7 1398.08 1496.61 1398.61C1491.52 1399.14 1502.81 1399.57 1504.81 1399.34ZM1509.62 1407.11C1514.82 1406.24 1493.62 1406.1 1497.9 1407.04C1498.15 1407.09 1509.32 1407.17 1509.62 1407.11ZM1508.07 1132.27C1508.27 1132.26 1508.46 1131.79 1508.27 1131.78C1503.52 1131.54 1503.13 1132.46 1508.07 1132.27ZM1514.86 1414.83C1517.73 1414.55 1514.42 1413.77 1510.85 1414.11C1507.99 1414.38 1511.3 1415.17 1514.86 1414.83ZM1518.4 1300.07C1518.63 1300.06 1518.83 1299.73 1517.57 1299.74C1513.51 1299.76 1514.66 1300.22 1518.4 1300.07ZM1515.11 1427.93C1515.91 1426 1533.42 1424.82 1531.45 1426.93C1531.09 1427.31 1525.86 1426.11 1524.28 1426.6C1521.41 1427.48 1532.4 1428.08 1526.51 1428.98C1525.43 1429.15 1515.02 1428.04 1515.08 1427.93C1515.09 1427.93 1515.1 1427.93 1515.11 1427.93ZM1520.41 1329.65C1520.6 1329.64 1520.79 1329.18 1520.6 1329.16C1515.85 1328.92 1515.47 1329.84 1520.41 1329.65ZM1527.65 1280.68C1528.07 1280.65 1528.47 1279.58 1528.08 1279.55C1520.32 1278.99 1519.5 1281.15 1527.65 1280.68ZM1531.35 1360.63C1536.13 1361.14 1536.69 1361.74 1530.69 1362.14C1531.01 1361.64 1531.06 1361.14 1531.35 1360.63ZM1513.58 1478.49C1509.5 1479.79 1504.16 1478.4 1500.1 1476.49C1498.83 1475.9 1499.47 1473.25 1498.6 1472.72C1496.88 1471.69 1495.28 1472.99 1493.58 1471.76C1493.02 1471.34 1493.72 1467.14 1493.13 1466.8C1489.9 1464.94 1486.84 1466.01 1483.57 1465.12C1467.44 1460.72 1451.59 1459.14 1435.27 1457.23C1429.89 1456.6 1423.35 1452.79 1417.79 1454.46C1417.14 1454.65 1417.53 1458.34 1417.4 1458.64C1415.47 1463.29 1416.11 1455.85 1414.85 1454.86C1409.83 1450.96 1404.25 1450.62 1399.42 1452.05C1397.36 1452.66 1399.42 1459.98 1397.36 1455.87C1397.21 1455.59 1397.73 1451.68 1397.17 1451.26C1395.89 1450.33 1393.47 1451.02 1392.48 1450.71C1390.57 1450.1 1390.25 1450.14 1388.45 1450.09C1385.98 1450 1383.04 1448.05 1380.4 1448.94C1379.83 1449.14 1380.58 1453.15 1379.68 1453.83C1378.78 1454.51 1376.39 1454.17 1375.58 1453.23C1374.78 1452.28 1375.12 1449.13 1374.98 1448.41C1373.81 1442.31 1371.05 1450.76 1370.69 1450.96C1364.22 1454.52 1358.66 1449.71 1352.58 1449.73C1347.97 1449.75 1343.03 1451.34 1338.64 1451.12C1333.41 1450.84 1328.98 1448.67 1323.89 1449.04C1323.36 1449.08 1323.99 1453.79 1323.33 1453.85C1316.37 1454.39 1309.46 1453.88 1302.53 1450.7C1301.83 1450.37 1302.73 1446.23 1302.03 1445.66C1297.78 1442.26 1291.06 1434.08 1288.53 1452.11C1285.65 1451.41 1282.16 1450.68 1279.58 1447.05C1277.92 1444.71 1279.53 1440.2 1277.49 1442.12C1277.03 1442.55 1277.63 1446.5 1276.94 1446.84C1274.03 1448.29 1270.86 1447.01 1267.98 1449.05C1267.4 1449.47 1267.56 1453.01 1267.39 1453.65C1266 1458.81 1263.68 1450.28 1263.18 1449.66C1259.33 1445.03 1256.52 1446.85 1252.94 1446.74C1252.1 1446.71 1253.09 1451.47 1252.29 1451.61C1248.14 1452.29 1243.84 1451.88 1239.77 1449.77C1238.87 1449.29 1239.7 1445.24 1239.27 1444.81C1237.36 1442.93 1236.94 1450.58 1235.11 1448.93C1234.73 1448.59 1234.94 1445.12 1234.87 1444.74C1233.77 1438.76 1232.82 1447.23 1232.54 1447.42C1228.96 1449.97 1226.67 1441.13 1223.21 1442.38C1222.8 1442.54 1223.73 1446.93 1222.57 1447.11C1214.83 1448.32 1206.64 1447.11 1198.97 1443.6C1197.78 1443.06 1198.63 1439.77 1198.56 1439.36C1197.33 1433.01 1196.54 1441.52 1196.16 1441.84C1193.09 1444.15 1190.23 1437.01 1188.14 1447.14C1175.16 1443.63 1162.24 1449.32 1149.36 1440.24C1149.2 1440.14 1149.49 1435.95 1149.16 1435.75C1145.23 1433.4 1145.99 1439.91 1143.39 1447.88C1142.73 1449.88 1140.74 1440.26 1140.56 1439.56C1139.92 1436.96 1140.58 1430.73 1140.37 1430.23C1138.59 1426.28 1138.88 1446.89 1136.47 1446.89C1136.4 1446.86 1136.71 1443.07 1136.51 1442.69C1135.89 1441.5 1135.27 1443.01 1134.65 1441.71C1133.25 1438.68 1132.75 1428.67 1130.61 1434.5C1130.33 1435.25 1130.75 1446.95 1128.6 1446.39C1127.75 1446.16 1123.96 1446.36 1122.9 1445.61C1121.84 1444.85 1122.57 1441.08 1122.49 1440.92C1119.64 1435.94 1120.72 1433.87 1119.29 1426.5C1117.86 1419.15 1118.26 1436.67 1117.67 1438.63C1117.09 1440.58 1115 1436.47 1114.48 1435.04C1113.97 1433.61 1114.61 1431.22 1114.15 1430.41C1111.12 1425.12 1112.82 1439.11 1111.82 1441.89C1109.47 1448.48 1107.63 1435.48 1105.48 1434.2C1104.89 1433.86 1105.37 1436.82 1104.85 1437.1C1102.79 1438.15 1101.56 1434.1 1099.22 1437.82C1098.83 1438.42 1096.94 1446.24 1095.72 1440.5C1095.54 1439.68 1096.03 1436.44 1095.16 1435.71C1093.85 1434.62 1091.49 1433.92 1090.08 1435C1089.04 1435.8 1090.23 1441.14 1088.92 1439.48C1088.34 1438.74 1089.42 1435.62 1088.33 1434.49C1087.24 1433.36 1084.46 1433.49 1083.4 1433.6C1082.35 1433.71 1082.93 1437.76 1082.84 1438.03C1082.33 1439.59 1080.3 1441.55 1080.12 1441.54C1071.09 1442.04 1062.77 1435.21 1053.98 1437.47C1053.29 1437.64 1053.75 1441.91 1053.64 1441.98C1051.28 1443.77 1053.14 1432.42 1051.49 1428.62C1051.73 1437.28 1050.76 1435.71 1049.09 1436.66C1048.29 1437.13 1048.73 1440.48 1048.66 1440.83C1047.47 1445.92 1046.64 1439.34 1046.43 1437.99C1045.64 1433.04 1044.78 1438.89 1044.25 1435.58C1043.71 1432.3 1044.94 1427.43 1043.35 1427.49C1042.9 1430.59 1044.08 1438.7 1042.87 1440.01C1038.3 1444.98 1029.77 1438.62 1026.1 1437.96C1022.43 1437.3 1021.25 1437.87 1019.11 1436.75C1015.25 1434.72 1016.66 1440.74 1014.27 1443.49C1011.86 1446.24 1013.03 1431.45 1012.69 1428.27C1012.35 1425.09 1011.98 1428.36 1011.55 1426.61C1011.13 1424.86 1012.04 1422.7 1011.06 1422.05C1010.07 1421.39 1007.36 1427.05 1007.01 1430.37C1006.27 1437.42 1007.49 1444.81 1004.87 1442.21C1004.72 1442.06 1005.21 1438.17 1004.63 1437.78C1000.05 1434.78 995.291 1434.59 990.716 1431.95C990.087 1431.58 990.649 1427.25 990.283 1426.98C986.47 1424.22 987.833 1431.51 985.743 1439.62C986.212 1428.83 985.057 1422.23 982.163 1422.17C980.423 1422.13 980.723 1426.84 979.598 1430.16C979.26 1431.16 978.029 1427.92 977.806 1430.14C977.071 1437.38 978.23 1445.49 975.246 1442.26C975.115 1442.11 975.532 1438.14 975.08 1437.9C972.156 1436.33 971.806 1443.91 968.646 1444.82C966.169 1445.54 961.763 1440.93 958.942 1440.17C959.001 1428.05 956.337 1430.82 955.256 1439.18C953.426 1438.84 951.449 1439.32 949.679 1438.16C949.07 1437.77 949.471 1434.25 949.394 1433.87C948.216 1427.92 947.42 1436.06 947.025 1436.38C942.743 1439.48 939.254 1433.31 935.167 1439.34C935.022 1439.55 934.787 1447.98 933.694 1441.83C933.623 1441.4 934.973 1437.57 933.051 1437.27C931.128 1436.98 927.503 1432.46 924.833 1436.37C924.187 1437.3 922.553 1444.14 921.242 1438.8C921.067 1438.07 921.258 1435.66 921.006 1434.31C920.191 1430.03 919.746 1438.55 918.788 1431.31C917.829 1424.08 915.836 1418.66 913.144 1423.65C913.058 1423.8 912.421 1430.55 911.574 1430.44C910.223 1430.26 908.304 1428.86 906.893 1428.9C906.217 1428.92 906.65 1433.11 906.532 1433.19C901.99 1435.54 898.756 1431.8 893.889 1430.18C892.997 1429.88 890.433 1435.59 888.706 1431.07C886.809 1426.13 888.758 1405.55 884.399 1410.46C882.641 1412.42 880.415 1438.52 877.255 1424.99C871.127 1428.35 865.459 1421.42 859.314 1426.21C859.038 1426.42 858.164 1433.71 857.515 1433.61C856.55 1433.45 856.021 1430.04 855.332 1429.82C852.446 1428.79 849.805 1431.7 847.023 1431.25C845.967 1431.09 846.336 1427.57 845.076 1427.37C843.817 1427.18 842.978 1431.81 841.271 1429.57C839.983 1427.87 838.694 1418.39 836.984 1417.29C836.919 1426.63 835.744 1426.44 833.656 1428.91C833.255 1429.39 833.685 1432.64 833.495 1433.03C832.723 1434.71 832.007 1432.01 831.274 1433.84C831.095 1434.28 831.087 1437.47 830.941 1438.01C829.7 1442.71 827.656 1435.53 827.305 1434.28C825.96 1429.53 825.331 1433.68 824.299 1431.81C823.268 1429.94 824.809 1427.61 823.606 1426.47C821.111 1424.13 817.905 1424.64 815.372 1424.49C814.361 1424.46 815.05 1428.72 814.906 1428.81C812.815 1429.89 810.701 1425.36 809.542 1433.84C808.093 1411.9 808.282 1435.97 805.294 1431.58C805.058 1431.22 804.759 1420.85 805.662 1419.32C806.566 1417.8 807.936 1421.05 809.19 1418.67C809.487 1418.11 811.188 1408.39 811.42 1407.8C813.238 1403.2 813.495 1418.7 813.591 1419.56C814.682 1428.75 816.76 1418.27 817.307 1417.55C819.811 1414.23 821.939 1416.41 824.033 1414.04C825.402 1412.51 825.536 1402.36 826.612 1402.67C830.187 1403.7 831.435 1417.87 834.804 1405.58C835.526 1402.96 834.809 1391.86 837.397 1400.59C837.56 1401.14 839.482 1409.12 840.592 1404.07C840.731 1403.43 840.727 1400.2 840.911 1399.93C842.143 1398.17 842.965 1400.75 844.308 1399.51C845.651 1398.28 847.265 1396.44 848.798 1397.53C849.722 1398.19 850.907 1404.22 851.35 1405.7C852.598 1409.95 853.937 1402.98 854.711 1408.12C855.491 1413.3 853.966 1421.16 856.011 1424.5C856.087 1416.09 856.261 1407.47 856.383 1399.01C860.866 1399.31 865.277 1402.03 869.775 1401.65C870.333 1401.6 869.763 1397.08 870.36 1396.91C872.883 1396.19 875.086 1399.41 877.701 1398.13C879.726 1397.12 881.946 1392.33 884.063 1391.13C885.356 1400.75 888.498 1397.48 890.78 1398.36C891.58 1398.66 891.526 1401.23 892.095 1402.07C894.239 1405.17 893.235 1396.67 893.822 1395.33C896.345 1389.62 896.561 1408.86 899.535 1408.39C899.693 1408.37 901.619 1398.11 901.884 1397.47C903.57 1393.31 902.164 1401.04 903.218 1401.8C905.144 1403.19 906.483 1405.64 908.743 1402.63C909.402 1401.74 910.982 1395.35 912.262 1400.29C912.43 1400.94 912.337 1404.33 912.473 1404.53C914.926 1407.84 914.99 1397.19 916.392 1393.58C917.793 1389.97 919.958 1397.33 920.399 1399.45C921.552 1404.93 919.516 1401.79 919.453 1402.33C918.72 1408.73 920.299 1407.63 921.505 1408.17C921.68 1418.61 923.367 1417.98 922.756 1408.69C922.687 1407.67 921.748 1408.64 921.505 1408.17C922.565 1397.92 924.419 1396.61 926.467 1406.18C927.426 1410.67 926.519 1415.9 929.432 1413.99C930.753 1413.13 930.242 1405.93 931.409 1403.97C934.074 1399.5 937.536 1406.21 940.283 1405.15C941.281 1404.77 940.309 1400.83 940.991 1400.43C942.799 1399.37 944.394 1402.32 946.21 1400.81C946.375 1400.66 945.972 1396.54 946.537 1396.49C950.819 1396.01 954.547 1398.65 959.017 1398.72C961.177 1398.76 965.038 1396.49 967.276 1396.94C971.154 1397.71 975.924 1403.7 979.237 1402.25C981.398 1401.31 980.924 1397.19 981.85 1394.39C983.636 1388.94 986.798 1398.69 987.224 1400.2C987.237 1400.25 985.378 1401.22 986.37 1403.34C986.947 1407.75 987.203 1400.22 987.224 1400.2C987.504 1401.18 991.218 1402.11 991.955 1401.33C992.356 1400.89 992.132 1396.99 992.341 1396.84C997.307 1393.34 1002.28 1392.35 1007.32 1394.18C1007.41 1394.26 1007.27 1398.62 1007.48 1398.76C1010.4 1400.7 1012.27 1395.35 1014.67 1392.18C1017.08 1389.01 1018.98 1390.07 1020.41 1397.57C1022.22 1396.63 1024.82 1399.94 1026.32 1401.95C1027.82 1403.97 1028.03 1395.46 1028.16 1395.29C1032.27 1389.91 1034.65 1394.78 1038.91 1395.54C1040.94 1395.91 1044.96 1394.68 1047.16 1393.75C1048.89 1393 1049.94 1394.99 1051.54 1393.72C1051.75 1393.55 1051.53 1389.76 1051.6 1389.62C1053.38 1385.09 1052.53 1394.34 1052.9 1396C1054.23 1402.01 1055.06 1405.21 1057.34 1402.38C1057.87 1401.73 1059.4 1388.41 1060.36 1387.63C1061.61 1386.64 1061.14 1391.42 1062.45 1390.26C1062.56 1390.16 1062.54 1387.22 1063.35 1387.35C1067.09 1387.91 1071.18 1389.63 1075.07 1389.33C1075.6 1389.3 1074.92 1384.63 1075.69 1384.51C1079.3 1383.96 1083.25 1384.13 1086.76 1386.32C1087.62 1386.87 1087.08 1390.14 1087.27 1391.11C1088.42 1396.99 1090.06 1388.45 1090.33 1388.29C1096.76 1384.18 1101.68 1391.91 1108.24 1388.23C1108.59 1388.02 1111.34 1378.86 1112.57 1386.71C1112.65 1387.24 1113.86 1395.27 1114.93 1389.78C1115 1389.43 1114.25 1385.3 1115.56 1385.72C1116.88 1386.14 1119 1383.38 1120.82 1387.92C1121.39 1389.35 1122.75 1397.37 1124.46 1390.98C1124.57 1390.53 1127.21 1376.09 1128.15 1386.05C1128.31 1387.69 1128.15 1398.24 1130.19 1392.84C1130.58 1391.79 1129.87 1389.43 1130.9 1387.96C1132.48 1385.7 1134.56 1388.53 1136.5 1383.83C1136.84 1382.99 1138.27 1375.83 1139.43 1381.27C1139.61 1382.12 1139.27 1385.64 1139.87 1386.04C1142.77 1387.93 1145.8 1385.57 1148.74 1388.01C1149.78 1388.86 1149.25 1394.56 1150.34 1396.08C1151.42 1397.61 1153.61 1399.07 1154.75 1396.47C1155.88 1393.87 1154.64 1384.8 1156.34 1384.07C1163.75 1380.92 1171.08 1386.24 1178.47 1387.02C1179.56 1387.13 1178.65 1383.89 1180.27 1383.83C1186.23 1383.58 1196.51 1380.54 1201.67 1387.44C1205.81 1392.97 1200.6 1397.17 1203.77 1399.42C1205.3 1400.49 1206.95 1389.94 1207.32 1389.61C1210.92 1386.24 1213.42 1390.91 1216.66 1389.48C1217.33 1389.18 1216.67 1384.91 1217.24 1384.7C1219.19 1383.96 1221.23 1385.87 1223.09 1385.52C1223.92 1385.35 1223.77 1382.08 1224.54 1382.34C1226.37 1382.9 1228 1384.28 1229.79 1387.34C1229.95 1387.61 1228.85 1391.68 1230.21 1391.83C1232.41 1392.06 1235.14 1395.08 1237.67 1391.96C1238.42 1391.02 1238.45 1383.56 1240.06 1388.72C1240.4 1389.79 1239.97 1398.75 1241.85 1391.01C1242.16 1389.72 1245.32 1379.28 1246.87 1386.01C1247.28 1387.78 1248.32 1395.12 1249.22 1393.96C1249.34 1393.78 1248.85 1389.77 1249.6 1389.38C1252.24 1388.07 1255 1388.5 1257.71 1387.24C1258.43 1386.9 1257.35 1382.75 1258.43 1382.37C1261.4 1381.33 1265.1 1382.38 1267.99 1383.68C1269.06 1384.17 1268.32 1387.6 1268.4 1387.98C1269.65 1394.06 1270.39 1385.85 1270.81 1385.37C1273.39 1382.5 1275.35 1386.36 1277.73 1385.34C1278.39 1385.07 1277.92 1381.15 1278.05 1380.81C1279.41 1377.39 1278.4 1384.42 1279.26 1385.2C1281.66 1387.39 1284.34 1387.08 1286.77 1386.58C1287.66 1386.39 1286.66 1381.85 1287.46 1381.73C1292.2 1380.95 1297.13 1381.38 1301.76 1383.89C1302.63 1384.37 1302.08 1387.86 1302.26 1388.66C1303.52 1394.25 1305.35 1386.63 1305.77 1385.9C1307.69 1382.59 1308.44 1385.68 1310.13 1385.1C1318.41 1382.23 1328.64 1384.28 1336.45 1385.54C1346.64 1387.17 1354.54 1390.49 1364.25 1389.63C1364.87 1389.58 1364.25 1384.93 1364.78 1384.83C1371.65 1383.71 1378.41 1385.52 1385.29 1384.18C1385.86 1384.08 1385.04 1379.67 1385.95 1379.36C1387.81 1378.69 1390.17 1378.93 1392.05 1380.34C1392.96 1381.01 1391.73 1384.8 1392.66 1385.4C1394.81 1386.82 1397.11 1387.13 1399.32 1386.43C1400.26 1386.12 1398.84 1381.61 1400.06 1381.56C1408.38 1381.11 1416.55 1380.33 1424.96 1386.17C1425.53 1386.57 1426.04 1395.73 1427.26 1393.98C1427.36 1391.43 1427.35 1388.44 1427.39 1385.72C1439.5 1384.26 1451.49 1387.44 1463.63 1387.93C1464.15 1387.95 1463.26 1383.09 1464.25 1383.11C1469.99 1383.18 1475.56 1381.83 1481.43 1386.66C1482.01 1387.13 1481.71 1395.67 1483.43 1394.38C1483.73 1394.14 1486.32 1393 1486.98 1391.15C1487.08 1390.87 1486.6 1386.88 1487.44 1386.77C1492.28 1386.16 1497.35 1387.07 1502.18 1389.51C1502.96 1389.91 1502.13 1394.15 1502.68 1394.48C1506.62 1396.73 1510.91 1393.5 1514.67 1397.36C1517.19 1399.95 1516.26 1407.29 1517.6 1414.51C1517.79 1415.53 1519.35 1415.7 1519.43 1419.9C1519.64 1430.47 1518.88 1442.04 1519.19 1453.3C1519.26 1455.73 1521.35 1453.12 1520.11 1458.98C1520.02 1459.37 1518.51 1461.32 1518.13 1463.31C1517.87 1464.68 1518.34 1468.96 1517.81 1470.72C1517.28 1472.47 1516.7 1468.89 1515.82 1470.96C1514.94 1473.05 1515.33 1477.92 1513.58 1478.49ZM1033.07 1410.94C1034.45 1415.03 1034.66 1400.07 1033.16 1403.65C1033.09 1403.84 1033 1410.74 1033.07 1410.94ZM865.252 1413.31C867.065 1419.9 868.306 1410.2 867.027 1405.11C865.748 1400.02 864.7 1411.31 865.252 1413.31ZM846.449 1418.12C848.568 1423.32 848.902 1402.12 846.632 1406.4C846.5 1406.65 846.325 1417.82 846.449 1418.12ZM1511.39 1416.57C1511.41 1416.77 1512.53 1416.96 1512.56 1416.77C1513.15 1412.02 1510.91 1411.63 1511.39 1416.57ZM827.79 1423.36C828.452 1426.23 830.357 1422.92 829.535 1419.35C828.873 1416.49 826.967 1419.8 827.79 1423.36ZM1105.42 1426.9C1105.44 1427.13 1106.24 1427.33 1106.23 1426.07C1106.17 1422.01 1105.06 1423.16 1105.42 1426.9ZM796.078 1423.61C800.763 1424.41 803.604 1441.92 798.502 1439.95C797.578 1439.59 800.493 1434.36 799.317 1432.78C797.165 1429.91 795.736 1440.9 793.54 1435.01C793.143 1433.93 795.811 1423.52 796.086 1423.58C796.083 1423.59 796.081 1423.6 796.078 1423.61ZM1033.87 1428.91C1033.89 1429.1 1035.01 1429.29 1035.03 1429.1C1035.64 1424.35 1033.39 1423.97 1033.87 1428.91ZM1152.34 1436.15C1152.4 1436.57 1154.98 1436.97 1155.07 1436.58C1156.42 1428.82 1151.19 1428 1152.34 1436.15ZM958.898 1439.85C957.683 1444.63 956.23 1445.19 955.262 1439.19C956.469 1439.51 957.684 1439.56 958.898 1439.85Z" fill="#D73E40"/>
</svg>
