<svg width="377" height="383" viewBox="0 0 377 383" fill="none" xmlns="http://www.w3.org/2000/svg">
<path d="M137.382 138.729H242.882C242.882 138.729 238.829 -6.01347 179.381 0.728414C119.933 7.47029 137.382 138.729 137.382 138.729Z" fill="black"/>
<path d="M242.882 138.729H137.382L109.881 233.292L201.487 284.925L280.881 233.292L242.882 138.729Z" fill="black"/>
<path d="M242.882 138.729L280.881 233.292C280.881 233.292 390.303 199.961 374.381 149.228C358.459 98.4957 242.882 138.729 242.882 138.729Z" fill="black"/>
<path d="M280.881 233.292L201.487 284.925C201.487 284.925 273.81 396.85 316.381 363.228C358.952 329.607 280.881 233.292 280.881 233.292Z" fill="black"/>
<path d="M201.487 284.925L109.881 233.292C109.881 233.292 34.277 346.436 83.8811 377.228C133.485 408.021 201.487 284.925 201.487 284.925Z" fill="black"/>
<path d="M109.881 233.292L137.382 138.729C137.382 138.729 21.0293 98.1109 2.38108 149.228C-16.2671 200.346 109.881 233.292 109.881 233.292Z" fill="black"/>
<path d="M242.882 138.729H137.382M242.882 138.729L280.881 233.292M242.882 138.729C242.882 138.729 238.829 -6.01347 179.381 0.728414C119.933 7.47029 137.382 138.729 137.382 138.729M242.882 138.729C242.882 138.729 358.459 98.4957 374.381 149.228C390.303 199.961 280.881 233.292 280.881 233.292M137.382 138.729L109.881 233.292M137.382 138.729C137.382 138.729 21.0293 98.1109 2.38108 149.228C-16.2671 200.346 109.881 233.292 109.881 233.292M109.881 233.292L201.487 284.925M109.881 233.292C109.881 233.292 34.277 346.436 83.8811 377.228C133.485 408.021 201.487 284.925 201.487 284.925M201.487 284.925L280.881 233.292M201.487 284.925C201.487 284.925 273.81 396.85 316.381 363.228C358.952 329.607 280.881 233.292 280.881 233.292" stroke="black"/>
</svg>
