<svg width="120" height="120" viewBox="0 0 120 120" fill="none" xmlns="http://www.w3.org/2000/svg">
<g clip-path="url(#clip0_2081_405)">
<circle cx="60" cy="60" r="60" fill="black"/>
<circle cx="46" cy="60" r="4" fill="white"/>
<circle cx="60" cy="60" r="4" fill="white"/>
<circle cx="74" cy="60" r="4" fill="white"/>
<path d="M43.5 26H38.6035C35.802 26 33.554 28.3042 33.6235 31.1049C33.8509 40.2748 33.8659 46.8997 30.6745 56.2909C30.012 58.2403 28.1448 59.5 26.0859 59.5H22.5" stroke="white" stroke-width="8" stroke-linecap="round"/>
<path d="M43.5 93H38.6035C35.802 93 33.554 90.6958 33.6235 87.8951C33.8509 78.7252 33.8659 72.1003 30.6745 62.7091C30.012 60.7597 28.1448 59.5 26.0859 59.5H21" stroke="white" stroke-width="8" stroke-linecap="round"/>
<path d="M76 26H80.8965C83.698 26 85.946 28.3042 85.8765 31.1049C85.6491 40.2748 85.6341 46.8997 88.8255 56.2909C89.488 58.2403 91.3552 59.5 93.4141 59.5H97" stroke="white" stroke-width="8" stroke-linecap="round"/>
<path d="M76 93H80.8965C83.698 93 85.946 90.6958 85.8765 87.8951C85.6491 78.7252 85.6341 72.1003 88.8255 62.7091C89.488 60.7597 91.3552 59.5 93.4141 59.5H98.5" stroke="white" stroke-width="8" stroke-linecap="round"/>
</g>
<defs>
<clipPath id="clip0_2081_405">
<rect width="120" height="120" fill="white"/>
</clipPath>
</defs>
</svg>
