<svg width="512" height="512" viewBox="0 0 512 512" fill="none" xmlns="http://www.w3.org/2000/svg">
<g clip-path="url(#clip0_2041_397)">
<path d="M127.711 34.4531C-42.5704 132.622 -42.5703 379.378 127.711 477.547C297.992 575.716 512 452.338 512 256C512 59.6617 297.992 -63.716 127.711 34.4531ZM176.374 408.553C54.2343 408.553 156.445 271.22 71.598 273.588V236.886C151.637 246.817 56.2073 90.6739 175.782 104.289V132.703C109.089 134.281 175.387 219.522 115.403 255.237C175.782 294.898 112.246 385.27 176.374 375.404V408.553ZM172.088 275.131C158.307 267.186 158.307 247.216 172.088 239.271C185.869 231.326 203.189 241.311 203.189 257.201C203.189 273.091 185.869 283.076 172.088 275.131ZM245.617 275.131C231.836 267.186 231.836 247.216 245.617 239.271C259.399 231.326 276.718 241.311 276.718 257.201C276.718 273.091 259.399 283.076 245.617 275.131ZM319.147 275.131C305.366 267.186 305.366 247.216 319.147 239.271C332.928 231.326 350.248 241.311 350.248 257.201C350.248 273.091 332.928 283.076 319.147 275.131ZM335.626 408.553V375.404C399.754 385.27 336.218 294.898 396.597 255.237C336.613 219.522 402.911 134.281 336.218 132.703V104.289C455.793 90.6739 360.363 246.817 440.402 236.886V273.588C355.555 271.22 457.766 408.553 335.626 408.553Z" fill="#1B1F23"/>
</g>
<defs>
<clipPath id="clip0_2041_397">
<rect width="512" height="512" fill="white"/>
</clipPath>
</defs>
</svg>
